<svg width="87" height="36" viewBox="0 0 87 36" fill="none" xmlns="http://www.w3.org/2000/svg">
<path d="M5.03849 11.7414V9.02939H0.270493V7.06939L4.58249 0.541393H6.99049V7.07739H7.93449V9.02939H6.99049V11.7414H5.03849ZM2.53449 7.06939L5.03849 7.07739L5.03049 3.20539L2.53449 7.06939ZM12.9841 11.9494C12.3068 11.9494 11.6961 11.7894 11.1521 11.4694C10.6081 11.1494 10.1761 10.7201 9.85612 10.1814C9.53612 9.63739 9.37612 9.03473 9.37612 8.37339H11.3281C11.3281 8.67206 11.3975 8.94406 11.5361 9.18939C11.6801 9.43473 11.8775 9.63206 12.1281 9.78139C12.3788 9.92539 12.6641 9.99739 12.9841 9.99739C13.2775 9.99739 13.5495 9.92539 13.8001 9.78139C14.0561 9.63206 14.2615 9.43473 14.4161 9.18939C14.5708 8.94406 14.6481 8.67206 14.6481 8.37339C14.6481 7.98406 14.5441 7.66139 14.3361 7.40539C14.1281 7.14406 13.8375 6.94939 13.4641 6.82139C13.0961 6.69339 12.6668 6.62939 12.1761 6.62939V5.12539C12.8375 5.12539 13.3601 5.00006 13.7441 4.74939C14.1335 4.49873 14.3281 4.13073 14.3281 3.64539C14.3281 3.39473 14.2641 3.16539 14.1361 2.95739C14.0081 2.74939 13.8375 2.58406 13.6241 2.46139C13.4161 2.33339 13.1868 2.26939 12.9361 2.26939C12.6801 2.26939 12.4321 2.33339 12.1921 2.46139C11.9521 2.58406 11.7548 2.74939 11.6001 2.95739C11.4508 3.16539 11.3761 3.39473 11.3761 3.64539H9.42412C9.42412 3.18673 9.51745 2.75739 9.70412 2.35739C9.89078 1.95206 10.1468 1.59739 10.4721 1.29339C10.8028 0.989394 11.1761 0.75206 11.5921 0.581393C12.0135 0.405393 12.4535 0.317393 12.9121 0.317393C13.5148 0.317393 14.0721 0.466727 14.5841 0.765393C15.0961 1.06406 15.5068 1.46406 15.8161 1.96539C16.1255 2.46673 16.2801 3.02673 16.2801 3.64539C16.2801 4.07739 16.1788 4.50139 15.9761 4.91739C15.7735 5.33339 15.4855 5.62673 15.1121 5.79739C15.4375 5.91473 15.7095 6.11206 15.9281 6.38939C16.1468 6.66139 16.3121 6.97339 16.4241 7.32539C16.5415 7.67206 16.6001 8.02139 16.6001 8.37339C16.6001 9.02939 16.4348 9.62939 16.1041 10.1734C15.7735 10.7121 15.3335 11.1441 14.7841 11.4694C14.2401 11.7894 13.6401 11.9494 12.9841 11.9494ZM21.9236 11.9494C21.273 11.9494 20.681 11.8001 20.1476 11.5014C19.6143 11.1974 19.153 10.7787 18.7636 10.2454C18.3796 9.71206 18.0836 9.09606 17.8756 8.39739C17.6676 7.69339 17.5636 6.94139 17.5636 6.14139C17.5636 5.34139 17.6676 4.59206 17.8756 3.89339C18.0836 3.18939 18.3796 2.57073 18.7636 2.03739C19.153 1.50406 19.6143 1.08806 20.1476 0.789393C20.681 0.485393 21.273 0.333393 21.9236 0.333393C22.5743 0.333393 23.1663 0.485393 23.6996 0.789393C24.233 1.08806 24.689 1.50406 25.0676 2.03739C25.4516 2.57073 25.7476 3.18939 25.9556 3.89339C26.169 4.59206 26.2756 5.34139 26.2756 6.14139C26.2756 6.94139 26.169 7.69339 25.9556 8.39739C25.7476 9.09606 25.4516 9.71206 25.0676 10.2454C24.689 10.7787 24.233 11.1974 23.6996 11.5014C23.1663 11.8001 22.5743 11.9494 21.9236 11.9494ZM21.9236 9.99739C22.4943 9.99739 22.9663 9.81606 23.3396 9.45339C23.713 9.09073 23.9903 8.61606 24.1716 8.02939C24.353 7.44273 24.4436 6.81339 24.4436 6.14139C24.4436 5.43206 24.3476 4.78673 24.1556 4.20539C23.9636 3.61873 23.681 3.15206 23.3076 2.80539C22.9343 2.45873 22.473 2.28539 21.9236 2.28539C21.4916 2.28539 21.1156 2.39206 20.7956 2.60539C20.481 2.81339 20.2196 3.09873 20.0116 3.46139C19.8036 3.82406 19.649 4.23739 19.5476 4.70139C19.4463 5.16006 19.3956 5.64006 19.3956 6.14139C19.3956 6.80806 19.4863 7.43739 19.6676 8.02939C19.8543 8.61606 20.1343 9.09073 20.5076 9.45339C20.8863 9.81606 21.3583 9.99739 21.9236 9.99739ZM30.4195 10.9414V7.91739H27.3955V5.96539H30.4195V2.94139H32.3715V5.96539H35.3955V7.91739H32.3715V10.9414H30.4195Z" fill="#468671"/>
<path d="M47.5685 0.541393H49.2325V11.7414H47.5685V6.57339H42.5045V11.7414H40.8405V0.541393H42.5045V4.90939H47.5685V0.541393ZM57.2676 3.74139H58.9316V11.7414H57.2596L57.1956 10.5814C56.961 10.9921 56.6436 11.3227 56.2436 11.5734C55.8436 11.8241 55.3716 11.9494 54.8276 11.9494C54.241 11.9494 53.689 11.8401 53.1716 11.6214C52.6543 11.3974 52.1983 11.0881 51.8036 10.6934C51.4143 10.2987 51.1103 9.84539 50.8916 9.33339C50.673 8.81606 50.5636 8.26139 50.5636 7.66939C50.5636 7.09873 50.6703 6.56273 50.8836 6.06139C51.097 5.55473 51.393 5.11206 51.7716 4.73339C52.1503 4.35473 52.5876 4.05873 53.0836 3.84539C53.585 3.62673 54.121 3.51739 54.6916 3.51739C55.273 3.51739 55.785 3.65073 56.2276 3.91739C56.6756 4.17873 57.0463 4.51473 57.3396 4.92539L57.2676 3.74139ZM54.7876 10.3414C55.257 10.3414 55.6676 10.2267 56.0196 9.99739C56.3716 9.76273 56.6436 9.44806 56.8356 9.05339C57.033 8.65873 57.1316 8.22139 57.1316 7.74139C57.1316 7.25606 57.033 6.81606 56.8356 6.42139C56.6383 6.02673 56.3636 5.71473 56.0116 5.48539C55.665 5.25073 55.257 5.13339 54.7876 5.13339C54.3236 5.13339 53.8996 5.25073 53.5156 5.48539C53.1316 5.72006 52.8276 6.03473 52.6036 6.42939C52.3796 6.82406 52.2676 7.26139 52.2676 7.74139C52.2676 8.22673 52.3823 8.66673 52.6116 9.06139C52.8463 9.45073 53.153 9.76273 53.5316 9.99739C53.9156 10.2267 54.3343 10.3414 54.7876 10.3414ZM62.192 15.7414H60.528V3.74139H62.192V4.91739C62.4587 4.50673 62.8 4.17339 63.216 3.91739C63.632 3.66139 64.1227 3.53339 64.688 3.53339C65.2693 3.53339 65.8133 3.64273 66.32 3.86139C66.832 4.08006 67.28 4.38406 67.664 4.77339C68.048 5.15739 68.3493 5.60273 68.568 6.10939C68.7867 6.61606 68.896 7.16006 68.896 7.74139C68.896 8.32273 68.7867 8.86939 68.568 9.38139C68.3493 9.89339 68.048 10.3441 67.664 10.7334C67.28 11.1174 66.832 11.4187 66.32 11.6374C65.8133 11.8561 65.2693 11.9654 64.688 11.9654C64.1227 11.9654 63.632 11.8374 63.216 11.5814C62.8 11.3201 62.4587 10.9867 62.192 10.5814V15.7414ZM64.672 5.14139C64.208 5.14139 63.8 5.25873 63.448 5.49339C63.096 5.72806 62.8213 6.04273 62.624 6.43739C62.4267 6.82673 62.328 7.26139 62.328 7.74139C62.328 8.22139 62.4267 8.65873 62.624 9.05339C62.8213 9.44806 63.096 9.76273 63.448 9.99739C63.8 10.2321 64.208 10.3494 64.672 10.3494C65.1307 10.3494 65.552 10.2347 65.936 10.0054C66.32 9.77073 66.6267 9.45606 66.856 9.06139C67.0853 8.66673 67.2 8.22673 67.2 7.74139C67.2 7.26673 67.0853 6.83206 66.856 6.43739C66.632 6.04273 66.328 5.72806 65.944 5.49339C65.56 5.25873 65.136 5.14139 64.672 5.14139ZM71.8639 15.7414H70.1999V3.74139H71.8639V4.91739C72.1305 4.50673 72.4719 4.17339 72.8879 3.91739C73.3039 3.66139 73.7945 3.53339 74.3599 3.53339C74.9412 3.53339 75.4852 3.64273 75.9919 3.86139C76.5039 4.08006 76.9519 4.38406 77.3359 4.77339C77.7199 5.15739 78.0212 5.60273 78.2399 6.10939C78.4585 6.61606 78.5679 7.16006 78.5679 7.74139C78.5679 8.32273 78.4585 8.86939 78.2399 9.38139C78.0212 9.89339 77.7199 10.3441 77.3359 10.7334C76.9519 11.1174 76.5039 11.4187 75.9919 11.6374C75.4852 11.8561 74.9412 11.9654 74.3599 11.9654C73.7945 11.9654 73.3039 11.8374 72.8879 11.5814C72.4719 11.3201 72.1305 10.9867 71.8639 10.5814V15.7414ZM74.3439 5.14139C73.8799 5.14139 73.4719 5.25873 73.1199 5.49339C72.7679 5.72806 72.4932 6.04273 72.2959 6.43739C72.0985 6.82673 71.9999 7.26139 71.9999 7.74139C71.9999 8.22139 72.0985 8.65873 72.2959 9.05339C72.4932 9.44806 72.7679 9.76273 73.1199 9.99739C73.4719 10.2321 73.8799 10.3494 74.3439 10.3494C74.8025 10.3494 75.2239 10.2347 75.6079 10.0054C75.9919 9.77073 76.2985 9.45606 76.5279 9.06139C76.7572 8.66673 76.8719 8.22673 76.8719 7.74139C76.8719 7.26673 76.7572 6.83206 76.5279 6.43739C76.3039 6.04273 75.9999 5.72806 75.6159 5.49339C75.2319 5.25873 74.8079 5.14139 74.3439 5.14139ZM84.8674 3.74139H86.6434L82.2594 15.7414H80.4914L81.9394 11.7414L79.0674 3.74139H80.8834L82.7714 9.46139L84.8674 3.74139ZM5.77449 35.9494C5.01716 35.9494 4.30516 35.8001 3.63849 35.5014C2.97183 35.1974 2.38516 34.7814 1.87849 34.2534C1.37716 33.7201 0.982493 33.1014 0.694493 32.3974C0.411827 31.6934 0.270493 30.9414 0.270493 30.1414C0.270493 29.3414 0.411827 28.5894 0.694493 27.8854C0.982493 27.1814 1.37716 26.5654 1.87849 26.0374C2.38516 25.5041 2.97183 25.0881 3.63849 24.7894C4.30516 24.4854 5.01716 24.3334 5.77449 24.3334C6.68116 24.3334 7.51583 24.5441 8.27849 24.9654C9.04116 25.3867 9.67316 25.9467 10.1745 26.6454L8.69449 27.4374C8.34783 27.0001 7.91849 26.6507 7.40649 26.3894C6.89449 26.1281 6.35049 25.9974 5.77449 25.9974C5.24116 25.9974 4.74249 26.1067 4.27849 26.3254C3.81449 26.5441 3.40649 26.8427 3.05449 27.2214C2.70249 27.6001 2.42783 28.0401 2.23049 28.5414C2.03316 29.0427 1.93449 29.5761 1.93449 30.1414C1.93449 30.7121 2.03316 31.2481 2.23049 31.7494C2.42783 32.2454 2.70249 32.6854 3.05449 33.0694C3.41183 33.4481 3.82249 33.7467 4.28649 33.9654C4.75049 34.1787 5.24649 34.2854 5.77449 34.2854C6.36116 34.2854 6.90783 34.1547 7.41449 33.8934C7.92649 33.6267 8.35316 33.2747 8.69449 32.8374L10.1745 33.6454C9.67316 34.3441 9.04116 34.9041 8.27849 35.3254C7.51583 35.7414 6.68116 35.9494 5.77449 35.9494ZM11.3642 32.7414V27.7414H13.0282V32.3334C13.0282 32.6907 13.1162 33.0161 13.2922 33.3094C13.4682 33.6027 13.7029 33.8374 13.9962 34.0134C14.2896 34.1841 14.6122 34.2694 14.9642 34.2694C15.3216 34.2694 15.6442 34.1841 15.9322 34.0134C16.2256 33.8374 16.4576 33.6027 16.6282 33.3094C16.8042 33.0161 16.8922 32.6907 16.8922 32.3334V27.7414H18.5562L18.5642 35.7414H16.9002L16.8922 34.8774C16.6202 35.2081 16.2816 35.4694 15.8762 35.6614C15.4709 35.8534 15.0362 35.9494 14.5722 35.9494C13.9802 35.9494 13.4416 35.8054 12.9562 35.5174C12.4709 35.2294 12.0842 34.8427 11.7962 34.3574C11.5082 33.8721 11.3642 33.3334 11.3642 32.7414ZM22.5686 35.8934C22.1473 35.8667 21.7366 35.7814 21.3366 35.6374C20.9366 35.4934 20.5846 35.2987 20.2806 35.0534C19.982 34.8027 19.758 34.5094 19.6086 34.1734L21.0246 33.5654C21.094 33.7094 21.214 33.8507 21.3846 33.9894C21.5606 34.1281 21.766 34.2427 22.0006 34.3334C22.2353 34.4187 22.4806 34.4614 22.7366 34.4614C22.9873 34.4614 23.2193 34.4267 23.4326 34.3574C23.6513 34.2827 23.83 34.1707 23.9686 34.0214C24.1073 33.8721 24.1766 33.6934 24.1766 33.4854C24.1766 33.2507 24.0966 33.0694 23.9366 32.9414C23.782 32.8081 23.5873 32.7067 23.3526 32.6374C23.118 32.5681 22.8833 32.5014 22.6486 32.4374C22.126 32.3201 21.646 32.1601 21.2086 31.9574C20.7766 31.7494 20.4326 31.4854 20.1766 31.1654C19.9206 30.8401 19.7926 30.4427 19.7926 29.9734C19.7926 29.4614 19.9313 29.0187 20.2086 28.6454C20.486 28.2667 20.8486 27.9761 21.2966 27.7734C21.75 27.5707 22.2326 27.4694 22.7446 27.4694C23.3846 27.4694 23.9713 27.6054 24.5046 27.8774C25.038 28.1494 25.446 28.5227 25.7286 28.9974L24.4086 29.7814C24.3286 29.6214 24.2086 29.4774 24.0486 29.3494C23.8886 29.2214 23.7073 29.1201 23.5046 29.0454C23.302 28.9654 23.0913 28.9201 22.8726 28.9094C22.6006 28.8987 22.3473 28.9307 22.1126 29.0054C21.8833 29.0747 21.6993 29.1867 21.5606 29.3414C21.422 29.4961 21.3526 29.6934 21.3526 29.9334C21.3526 30.1681 21.4353 30.3441 21.6006 30.4614C21.766 30.5734 21.974 30.6641 22.2246 30.7334C22.4806 30.8027 22.742 30.8801 23.0086 30.9654C23.4833 31.1147 23.9286 31.2987 24.3446 31.5174C24.7606 31.7307 25.0966 31.9947 25.3526 32.3094C25.6086 32.6241 25.7313 33.0081 25.7206 33.4614C25.7206 33.9627 25.5686 34.4027 25.2646 34.7814C24.966 35.1601 24.5766 35.4481 24.0966 35.6454C23.6166 35.8427 23.1073 35.9254 22.5686 35.8934ZM31.3145 29.4054H29.6345L29.6265 35.7414H27.9625L27.9705 29.4054H26.6985V27.7414H27.9705L27.9625 25.2294H29.6265L29.6345 27.7414H31.3145V29.4054ZM36.0792 35.9494C35.3432 35.9494 34.6712 35.7601 34.0632 35.3814C33.4606 35.0027 32.9779 34.4961 32.6152 33.8614C32.2579 33.2214 32.0792 32.5147 32.0792 31.7414C32.0792 31.1547 32.1832 30.6081 32.3912 30.1014C32.5992 29.5894 32.8846 29.1414 33.2472 28.7574C33.6152 28.3681 34.0419 28.0641 34.5272 27.8454C35.0126 27.6267 35.5299 27.5174 36.0792 27.5174C36.8152 27.5174 37.4846 27.7067 38.0872 28.0854C38.6952 28.4641 39.1779 28.9734 39.5352 29.6134C39.8979 30.2534 40.0792 30.9627 40.0792 31.7414C40.0792 32.3227 39.9752 32.8667 39.7672 33.3734C39.5592 33.8801 39.2712 34.3281 38.9032 34.7174C38.5406 35.1014 38.1166 35.4027 37.6312 35.6214C37.1512 35.8401 36.6339 35.9494 36.0792 35.9494ZM36.0792 34.2854C36.5219 34.2854 36.9192 34.1681 37.2712 33.9334C37.6232 33.6987 37.9006 33.3894 38.1032 33.0054C38.3112 32.6161 38.4152 32.1947 38.4152 31.7414C38.4152 31.2774 38.3086 30.8507 38.0952 30.4614C37.8872 30.0721 37.6072 29.7627 37.2552 29.5334C36.9032 29.2987 36.5112 29.1814 36.0792 29.1814C35.6419 29.1814 35.2446 29.2987 34.8872 29.5334C34.5352 29.7681 34.2552 30.0801 34.0472 30.4694C33.8446 30.8587 33.7432 31.2827 33.7432 31.7414C33.7432 32.2161 33.8499 32.6454 34.0632 33.0294C34.2766 33.4134 34.5592 33.7201 34.9112 33.9494C35.2686 34.1734 35.6579 34.2854 36.0792 34.2854ZM41.3717 35.7414V27.7414H43.0357V28.5894C43.3131 28.2587 43.6517 27.9974 44.0517 27.8054C44.4571 27.6134 44.8944 27.5174 45.3637 27.5174C45.9344 27.5174 46.4597 27.6561 46.9397 27.9334C47.4197 28.2054 47.8011 28.5681 48.0837 29.0214C48.3664 28.5681 48.7424 28.2054 49.2117 27.9334C49.6864 27.6561 50.2091 27.5174 50.7797 27.5174C51.3717 27.5174 51.9104 27.6614 52.3957 27.9494C52.8811 28.2374 53.2677 28.6241 53.5557 29.1094C53.8437 29.5947 53.9877 30.1334 53.9877 30.7254V35.7414H52.3237V31.1494C52.3237 30.7974 52.2384 30.4747 52.0677 30.1814C51.8971 29.8881 51.6677 29.6507 51.3797 29.4694C51.0917 29.2881 50.7717 29.1974 50.4197 29.1974C50.0677 29.1974 49.7477 29.2827 49.4597 29.4534C49.1717 29.6241 48.9424 29.8561 48.7717 30.1494C48.6011 30.4427 48.5157 30.7761 48.5157 31.1494V35.7414H46.8517V31.1494C46.8517 30.7761 46.7664 30.4427 46.5957 30.1494C46.4251 29.8561 46.1931 29.6241 45.8997 29.4534C45.6117 29.2827 45.2917 29.1974 44.9397 29.1974C44.5931 29.1974 44.2731 29.2881 43.9797 29.4694C43.6917 29.6507 43.4624 29.8881 43.2917 30.1814C43.1211 30.4747 43.0357 30.7974 43.0357 31.1494V35.7414H41.3717ZM58.9542 35.9494C58.2182 35.9494 57.5462 35.7601 56.9382 35.3814C56.3356 35.0027 55.8529 34.4961 55.4902 33.8614C55.1329 33.2214 54.9542 32.5147 54.9542 31.7414C54.9542 31.1547 55.0582 30.6081 55.2662 30.1014C55.4742 29.5894 55.7596 29.1414 56.1222 28.7574C56.4902 28.3681 56.9169 28.0641 57.4022 27.8454C57.8876 27.6267 58.4049 27.5174 58.9542 27.5174C59.5676 27.5174 60.1302 27.6454 60.6422 27.9014C61.1542 28.1521 61.5916 28.5014 61.9542 28.9494C62.3169 29.3921 62.5836 29.9041 62.7542 30.4854C62.9249 31.0614 62.9756 31.6747 62.9062 32.3254H56.7382C56.8076 32.6934 56.9409 33.0267 57.1382 33.3254C57.3409 33.6187 57.5969 33.8507 57.9062 34.0214C58.2209 34.1921 58.5702 34.2801 58.9542 34.2854C59.3596 34.2854 59.7276 34.1841 60.0582 33.9814C60.3942 33.7787 60.6689 33.4987 60.8822 33.1414L62.5702 33.5334C62.2502 34.2427 61.7676 34.8241 61.1222 35.2774C60.4769 35.7254 59.7542 35.9494 58.9542 35.9494ZM56.6822 31.0534H61.2262C61.1729 30.6694 61.0369 30.3227 60.8182 30.0134C60.6049 29.6987 60.3356 29.4507 60.0102 29.2694C59.6902 29.0827 59.3382 28.9894 58.9542 28.9894C58.5756 28.9894 58.2236 29.0801 57.8982 29.2614C57.5782 29.4427 57.3116 29.6907 57.0982 30.0054C56.8902 30.3147 56.7516 30.6641 56.6822 31.0534ZM64.2311 35.7414V27.7414H65.8951V28.5894C66.1725 28.2587 66.5138 27.9974 66.9191 27.8054C67.3245 27.6134 67.7618 27.5174 68.2311 27.5174C68.5298 27.5174 68.8258 27.5574 69.1191 27.6374L68.4551 29.3174C68.2471 29.2374 68.0391 29.1974 67.8311 29.1974C67.4791 29.1974 67.1565 29.2854 66.8631 29.4614C66.5698 29.6321 66.3351 29.8641 66.1591 30.1574C65.9831 30.4507 65.8951 30.7761 65.8951 31.1334V35.7414H64.2311ZM72.4436 35.8934C72.0223 35.8667 71.6116 35.7814 71.2116 35.6374C70.8116 35.4934 70.4596 35.2987 70.1556 35.0534C69.857 34.8027 69.633 34.5094 69.4836 34.1734L70.8996 33.5654C70.969 33.7094 71.089 33.8507 71.2596 33.9894C71.4356 34.1281 71.641 34.2427 71.8756 34.3334C72.1103 34.4187 72.3556 34.4614 72.6116 34.4614C72.8623 34.4614 73.0943 34.4267 73.3076 34.3574C73.5263 34.2827 73.705 34.1707 73.8436 34.0214C73.9823 33.8721 74.0516 33.6934 74.0516 33.4854C74.0516 33.2507 73.9716 33.0694 73.8116 32.9414C73.657 32.8081 73.4623 32.7067 73.2276 32.6374C72.993 32.5681 72.7583 32.5014 72.5236 32.4374C72.001 32.3201 71.521 32.1601 71.0836 31.9574C70.6516 31.7494 70.3076 31.4854 70.0516 31.1654C69.7956 30.8401 69.6676 30.4427 69.6676 29.9734C69.6676 29.4614 69.8063 29.0187 70.0836 28.6454C70.361 28.2667 70.7236 27.9761 71.1716 27.7734C71.625 27.5707 72.1076 27.4694 72.6196 27.4694C73.2596 27.4694 73.8463 27.6054 74.3796 27.8774C74.913 28.1494 75.321 28.5227 75.6036 28.9974L74.2836 29.7814C74.2036 29.6214 74.0836 29.4774 73.9236 29.3494C73.7636 29.2214 73.5823 29.1201 73.3796 29.0454C73.177 28.9654 72.9663 28.9201 72.7476 28.9094C72.4756 28.8987 72.2223 28.9307 71.9876 29.0054C71.7583 29.0747 71.5743 29.1867 71.4356 29.3414C71.297 29.4961 71.2276 29.6934 71.2276 29.9334C71.2276 30.1681 71.3103 30.3441 71.4756 30.4614C71.641 30.5734 71.849 30.6641 72.0996 30.7334C72.3556 30.8027 72.617 30.8801 72.8836 30.9654C73.3583 31.1147 73.8036 31.2987 74.2196 31.5174C74.6356 31.7307 74.9716 31.9947 75.2276 32.3094C75.4836 32.6241 75.6063 33.0081 75.5956 33.4614C75.5956 33.9627 75.4436 34.4027 75.1396 34.7814C74.841 35.1601 74.4516 35.4481 73.9716 35.6454C73.4916 35.8427 72.9823 35.9254 72.4436 35.8934Z" fill="black" fill-opacity="0.8"/>
</svg>
