<svg width="49" height="49" viewBox="0 0 49 49" fill="none" xmlns="http://www.w3.org/2000/svg">
<mask id="path-1-inside-1_443_44" fill="white">
<path d="M31.942 17.1686C31.6335 17.1686 31.3319 17.2607 31.0753 17.4335C30.8188 17.6062 30.6188 17.8516 30.5007 18.1389C30.3827 18.4261 30.3518 18.7421 30.412 19.047C30.4722 19.3519 30.6207 19.632 30.8389 19.8518C31.0571 20.0716 31.335 20.2213 31.6377 20.282C31.9403 20.3426 32.2539 20.3115 32.539 20.1925C32.824 20.0736 33.0677 19.8721 33.2391 19.6136C33.4105 19.3551 33.502 19.0512 33.502 18.7404C33.502 18.3235 33.3376 17.9237 33.0451 17.6289C32.7525 17.3342 32.3557 17.1686 31.942 17.1686ZM37.922 20.3384C37.8967 19.2516 37.6947 18.1764 37.324 17.1555C36.9935 16.282 36.479 15.491 35.816 14.837C35.1723 14.1656 34.3854 13.6505 33.515 13.3307C32.5045 12.9458 31.4361 12.7376 30.356 12.7151C28.978 12.6365 28.536 12.6365 25 12.6365C21.464 12.6365 21.022 12.6365 19.644 12.7151C18.5639 12.7376 17.4955 12.9458 16.485 13.3307C15.6162 13.6538 14.83 14.1684 14.184 14.837C13.5177 15.4856 13.0064 16.2784 12.689 17.1555C12.307 18.1737 12.1004 19.2501 12.078 20.3384C12 21.7268 12 22.1722 12 25.735C12 29.2977 12 29.7431 12.078 31.1315C12.1004 32.2198 12.307 33.2963 12.689 34.3145C13.0064 35.1915 13.5177 35.9843 14.184 36.6329C14.83 37.3015 15.6162 37.8162 16.485 38.1392C17.4955 38.5241 18.5639 38.7323 19.644 38.7549C21.022 38.8334 21.464 38.8334 25 38.8334C28.536 38.8334 28.978 38.8334 30.356 38.7549C31.4361 38.7323 32.5045 38.5241 33.515 38.1392C34.3854 37.8194 35.1723 37.3043 35.816 36.6329C36.4819 35.9814 36.9968 35.1897 37.324 34.3145C37.6947 33.2936 37.8967 32.2183 37.922 31.1315C37.922 29.7431 38 29.2977 38 25.735C38 22.1722 38 21.7268 37.922 20.3384ZM35.582 30.9744C35.5725 31.8058 35.4231 32.6296 35.14 33.4107C34.9324 33.9807 34.599 34.4958 34.165 34.917C33.7433 35.3499 33.2332 35.6851 32.67 35.8994C31.8948 36.1846 31.0772 36.3352 30.252 36.3447C28.952 36.4102 28.471 36.4233 25.052 36.4233C21.633 36.4233 21.152 36.4233 19.852 36.3447C18.9952 36.3609 18.142 36.228 17.33 35.9518C16.7915 35.7266 16.3048 35.3922 15.9 34.9694C15.4685 34.5486 15.1393 34.0331 14.938 33.4631C14.6206 32.6708 14.4446 31.8283 14.418 30.9744C14.418 29.6645 14.34 29.1799 14.34 25.735C14.34 22.2901 14.34 21.8054 14.418 20.4956C14.4238 19.6455 14.5778 18.8032 14.873 18.0069C15.1019 17.454 15.4531 16.9611 15.9 16.566C16.295 16.1157 16.7831 15.758 17.33 15.5181C18.1224 15.23 18.9576 15.0794 19.8 15.0728C21.1 15.0728 21.581 14.9942 25 14.9942C28.419 14.9942 28.9 14.9942 30.2 15.0728C31.0252 15.0823 31.8428 15.2329 32.618 15.5181C33.2088 15.7391 33.739 16.0982 34.165 16.566C34.591 16.9684 34.9239 17.4603 35.14 18.0069C35.4289 18.8045 35.5785 19.6465 35.582 20.4956C35.647 21.8054 35.66 22.2901 35.66 25.735C35.66 29.1799 35.647 29.6645 35.582 30.9744ZM25 19.0154C23.6816 19.018 22.3935 19.4143 21.2985 20.1542C20.2035 20.8942 19.3507 21.9445 18.8479 23.1726C18.3452 24.4006 18.2149 25.7513 18.4737 27.0539C18.7325 28.3565 19.3687 29.5526 20.3019 30.491C21.2351 31.4294 22.4234 32.0681 23.7167 32.3263C25.01 32.5845 26.3503 32.4507 27.5681 31.9417C28.786 31.4328 29.8267 30.5715 30.559 29.4668C31.2912 28.362 31.682 27.0634 31.682 25.735C31.6837 24.8509 31.512 23.9753 31.1766 23.1584C30.8413 22.3415 30.3489 21.5995 29.7279 20.975C29.1069 20.3506 28.3695 19.8559 27.5581 19.5196C26.7467 19.1833 25.8774 19.012 25 19.0154ZM25 30.0968C24.1438 30.0968 23.3068 29.8409 22.5949 29.3617C21.883 28.8824 21.3282 28.2012 21.0005 27.4041C20.6729 26.6071 20.5871 25.7301 20.7542 24.884C20.9212 24.0379 21.3335 23.2607 21.9389 22.6507C22.5444 22.0407 23.3157 21.6253 24.1555 21.457C24.9952 21.2887 25.8656 21.3751 26.6566 21.7052C27.4477 22.0353 28.1238 22.5944 28.5994 23.3117C29.0751 24.029 29.329 24.8723 29.329 25.735C29.329 26.3078 29.217 26.8749 28.9995 27.4041C28.7819 27.9333 28.463 28.4142 28.0611 28.8192C27.6591 29.2242 27.1819 29.5455 26.6566 29.7647C26.1314 29.9839 25.5685 30.0968 25 30.0968Z"/>
</mask>
<path d="M31.942 17.1686C31.6335 17.1686 31.3319 17.2607 31.0753 17.4335C30.8188 17.6062 30.6188 17.8516 30.5007 18.1389C30.3827 18.4261 30.3518 18.7421 30.412 19.047C30.4722 19.3519 30.6207 19.632 30.8389 19.8518C31.0571 20.0716 31.335 20.2213 31.6377 20.282C31.9403 20.3426 32.2539 20.3115 32.539 20.1925C32.824 20.0736 33.0677 19.8721 33.2391 19.6136C33.4105 19.3551 33.502 19.0512 33.502 18.7404C33.502 18.3235 33.3376 17.9237 33.0451 17.6289C32.7525 17.3342 32.3557 17.1686 31.942 17.1686ZM37.922 20.3384C37.8967 19.2516 37.6947 18.1764 37.324 17.1555C36.9935 16.282 36.479 15.491 35.816 14.837C35.1723 14.1656 34.3854 13.6505 33.515 13.3307C32.5045 12.9458 31.4361 12.7376 30.356 12.7151C28.978 12.6365 28.536 12.6365 25 12.6365C21.464 12.6365 21.022 12.6365 19.644 12.7151C18.5639 12.7376 17.4955 12.9458 16.485 13.3307C15.6162 13.6538 14.83 14.1684 14.184 14.837C13.5177 15.4856 13.0064 16.2784 12.689 17.1555C12.307 18.1737 12.1004 19.2501 12.078 20.3384C12 21.7268 12 22.1722 12 25.735C12 29.2977 12 29.7431 12.078 31.1315C12.1004 32.2198 12.307 33.2963 12.689 34.3145C13.0064 35.1915 13.5177 35.9843 14.184 36.6329C14.83 37.3015 15.6162 37.8162 16.485 38.1392C17.4955 38.5241 18.5639 38.7323 19.644 38.7549C21.022 38.8334 21.464 38.8334 25 38.8334C28.536 38.8334 28.978 38.8334 30.356 38.7549C31.4361 38.7323 32.5045 38.5241 33.515 38.1392C34.3854 37.8194 35.1723 37.3043 35.816 36.6329C36.4819 35.9814 36.9968 35.1897 37.324 34.3145C37.6947 33.2936 37.8967 32.2183 37.922 31.1315C37.922 29.7431 38 29.2977 38 25.735C38 22.1722 38 21.7268 37.922 20.3384ZM35.582 30.9744C35.5725 31.8058 35.4231 32.6296 35.14 33.4107C34.9324 33.9807 34.599 34.4958 34.165 34.917C33.7433 35.3499 33.2332 35.6851 32.67 35.8994C31.8948 36.1846 31.0772 36.3352 30.252 36.3447C28.952 36.4102 28.471 36.4233 25.052 36.4233C21.633 36.4233 21.152 36.4233 19.852 36.3447C18.9952 36.3609 18.142 36.228 17.33 35.9518C16.7915 35.7266 16.3048 35.3922 15.9 34.9694C15.4685 34.5486 15.1393 34.0331 14.938 33.4631C14.6206 32.6708 14.4446 31.8283 14.418 30.9744C14.418 29.6645 14.34 29.1799 14.34 25.735C14.34 22.2901 14.34 21.8054 14.418 20.4956C14.4238 19.6455 14.5778 18.8032 14.873 18.0069C15.1019 17.454 15.4531 16.9611 15.9 16.566C16.295 16.1157 16.7831 15.758 17.33 15.5181C18.1224 15.23 18.9576 15.0794 19.8 15.0728C21.1 15.0728 21.581 14.9942 25 14.9942C28.419 14.9942 28.9 14.9942 30.2 15.0728C31.0252 15.0823 31.8428 15.2329 32.618 15.5181C33.2088 15.7391 33.739 16.0982 34.165 16.566C34.591 16.9684 34.9239 17.4603 35.14 18.0069C35.4289 18.8045 35.5785 19.6465 35.582 20.4956C35.647 21.8054 35.66 22.2901 35.66 25.735C35.66 29.1799 35.647 29.6645 35.582 30.9744ZM25 19.0154C23.6816 19.018 22.3935 19.4143 21.2985 20.1542C20.2035 20.8942 19.3507 21.9445 18.8479 23.1726C18.3452 24.4006 18.2149 25.7513 18.4737 27.0539C18.7325 28.3565 19.3687 29.5526 20.3019 30.491C21.2351 31.4294 22.4234 32.0681 23.7167 32.3263C25.01 32.5845 26.3503 32.4507 27.5681 31.9417C28.786 31.4328 29.8267 30.5715 30.559 29.4668C31.2912 28.362 31.682 27.0634 31.682 25.735C31.6837 24.8509 31.512 23.9753 31.1766 23.1584C30.8413 22.3415 30.3489 21.5995 29.7279 20.975C29.1069 20.3506 28.3695 19.8559 27.5581 19.5196C26.7467 19.1833 25.8774 19.012 25 19.0154ZM25 30.0968C24.1438 30.0968 23.3068 29.8409 22.5949 29.3617C21.883 28.8824 21.3282 28.2012 21.0005 27.4041C20.6729 26.6071 20.5871 25.7301 20.7542 24.884C20.9212 24.0379 21.3335 23.2607 21.9389 22.6507C22.5444 22.0407 23.3157 21.6253 24.1555 21.457C24.9952 21.2887 25.8656 21.3751 26.6566 21.7052C27.4477 22.0353 28.1238 22.5944 28.5994 23.3117C29.0751 24.029 29.329 24.8723 29.329 25.735C29.329 26.3078 29.217 26.8749 28.9995 27.4041C28.7819 27.9333 28.463 28.4142 28.0611 28.8192C27.6591 29.2242 27.1819 29.5455 26.6566 29.7647C26.1314 29.9839 25.5685 30.0968 25 30.0968Z" fill="white"/>
<path d="M31.942 17.1686V12.1686V17.1686ZM33.502 18.7404H28.502H33.502ZM37.922 20.3384L32.9234 20.4547L32.9253 20.5368L32.9299 20.6188L37.922 20.3384ZM37.324 17.1555L42.0238 15.4489L42.0123 15.4173L42.0004 15.3858L37.324 17.1555ZM35.816 14.837L32.2069 18.2974L32.2551 18.3477L32.3047 18.3966L35.816 14.837ZM33.515 13.3307L31.7354 18.0033L31.7629 18.0137L31.7905 18.0239L33.515 13.3307ZM30.356 12.7151L30.0713 17.707L30.1614 17.7121L30.2517 17.714L30.356 12.7151ZM19.644 12.7151L19.7483 17.714L19.8386 17.7121L19.9287 17.707L19.644 12.7151ZM16.485 13.3307L18.2277 18.0172L18.2462 18.0103L18.2646 18.0033L16.485 13.3307ZM14.184 14.837L17.6715 18.4199L17.7265 18.3664L17.7797 18.3113L14.184 14.837ZM12.689 17.1555L17.3704 18.9117L17.3806 18.8845L17.3905 18.8571L12.689 17.1555ZM12.078 20.3384L17.0701 20.6188L17.0751 20.5301L17.0769 20.4412L12.078 20.3384ZM12.078 31.1315L17.0769 31.0288L17.0751 30.9399L17.0701 30.8511L12.078 31.1315ZM12.689 34.3145L17.3905 32.6128L17.3806 32.5854L17.3704 32.5582L12.689 34.3145ZM14.184 36.6329L17.7797 33.1586L17.7265 33.1035L17.6715 33.05L14.184 36.6329ZM16.485 38.1392L18.2646 33.4667L18.2462 33.4596L18.2277 33.4527L16.485 38.1392ZM19.644 38.7549L19.9287 33.763L19.8386 33.7578L19.7483 33.7559L19.644 38.7549ZM30.356 38.7549L30.2517 33.7559L30.1614 33.7578L30.0713 33.763L30.356 38.7549ZM33.515 38.1392L31.7905 33.446L31.7629 33.4562L31.7354 33.4667L33.515 38.1392ZM35.816 36.6329L32.3192 33.059L32.2622 33.1149L32.2069 33.1725L35.816 36.6329ZM37.324 34.3145L42.0075 36.0652L42.0157 36.0431L42.0238 36.021L37.324 34.3145ZM37.922 31.1315L42.9206 31.2478L42.922 31.1897V31.1315H37.922ZM35.582 30.9744L30.5881 30.7265L30.5834 30.8219L30.5823 30.9174L35.582 30.9744ZM35.14 33.4107L39.8382 35.1214L39.8408 35.1144L35.14 33.4107ZM34.165 34.917L30.6829 31.3288L30.6323 31.3779L30.5832 31.4283L34.165 34.917ZM32.67 35.8994L34.3965 40.5918L34.4222 40.5824L34.4478 40.5727L32.67 35.8994ZM30.252 36.3447L30.1942 31.3451L30.0973 31.3462L30.0004 31.3511L30.252 36.3447ZM19.852 36.3447L20.1537 31.3538L19.9559 31.3419L19.7577 31.3456L19.852 36.3447ZM17.33 35.9518L15.4009 40.5647L15.5583 40.6305L15.7199 40.6854L17.33 35.9518ZM15.9 34.9694L19.5117 31.5117L19.4524 31.4497L19.3909 31.3898L15.9 34.9694ZM14.938 33.4631L19.6527 31.7982L19.6181 31.7002L19.5794 31.6037L14.938 33.4631ZM14.418 30.9744H9.418V31.0521L9.42042 31.1299L14.418 30.9744ZM14.418 20.4956L19.4092 20.7928L19.417 20.6614L19.4179 20.5298L14.418 20.4956ZM14.873 18.0069L10.2532 16.0945L10.2173 16.1811L10.1847 16.2691L14.873 18.0069ZM15.9 16.566L19.2121 20.3117L19.4499 20.1014L19.6592 19.8627L15.9 16.566ZM17.33 15.5181L15.6215 10.8191L15.4698 10.8742L15.3221 10.939L17.33 15.5181ZM19.8 15.0728V10.0728H19.7803L19.7605 10.0729L19.8 15.0728ZM30.2 15.0728L29.8983 20.0637L30.0201 20.071L30.1422 20.0725L30.2 15.0728ZM32.618 15.5181L34.3693 10.8349L34.3569 10.8302L34.3445 10.8257L32.618 15.5181ZM34.165 16.566L30.4682 19.9325L30.5949 20.0718L30.7318 20.201L34.165 16.566ZM35.14 18.0069L39.8411 16.3039L39.8164 16.2358L39.7897 16.1683L35.14 18.0069ZM35.582 20.4956L30.582 20.5163L30.5825 20.6299L30.5881 20.7434L35.582 20.4956ZM25 19.0154L25.0098 24.0154L25.0197 24.0154L25 19.0154ZM31.682 25.735L26.682 25.7252V25.735L31.682 25.735ZM25 30.0968V35.0968V30.0968ZM29.329 25.735H34.329H29.329ZM31.942 12.1686C30.6361 12.1686 29.3627 12.5589 28.283 13.2858L33.8677 21.5811C33.301 21.9626 32.6308 22.1686 31.942 22.1686V12.1686ZM28.283 13.2858C27.2037 14.0124 26.3682 15.0412 25.8763 16.2377L35.1252 20.04C34.8695 20.6621 34.4339 21.1999 33.8677 21.5811L28.283 13.2858ZM25.8763 16.2377C25.3845 17.4339 25.2564 18.748 25.5066 20.0154L35.3173 18.0786C35.4471 18.7362 35.3808 19.4182 35.1252 20.04L25.8763 16.2377ZM25.5066 20.0154C25.7569 21.283 26.3755 22.4525 27.2901 23.374L34.3878 16.3296C34.866 16.8115 35.1874 17.4208 35.3173 18.0786L25.5066 20.0154ZM27.2901 23.374C28.205 24.2959 29.3754 24.928 30.6551 25.1845L32.6202 15.3795C33.2947 15.5147 33.9091 15.8474 34.3878 16.3296L27.2901 23.374ZM30.6551 25.1845C31.9351 25.441 33.2614 25.309 34.4648 24.8068L30.6132 15.5783C31.2465 15.314 31.9455 15.2442 32.6202 15.3795L30.6551 25.1845ZM34.4648 24.8068C35.6677 24.3047 36.6898 23.4571 37.4061 22.377L29.0721 16.8503C29.4456 16.2871 29.9804 15.8424 30.6132 15.5783L34.4648 24.8068ZM37.4061 22.377C38.1221 21.2973 38.502 20.0318 38.502 18.7404H28.502C28.502 18.0707 28.6989 17.413 29.0721 16.8503L37.4061 22.377ZM38.502 18.7404C38.502 17.0095 37.8199 15.3421 36.5939 14.1068L29.4962 21.1511C28.8553 20.5053 28.502 19.6375 28.502 18.7404H38.502ZM36.5939 14.1068C35.3667 12.8702 33.694 12.1686 31.942 12.1686V22.1686C31.0174 22.1686 30.1384 21.7981 29.4962 21.1511L36.5939 14.1068ZM42.9206 20.2221C42.8827 18.593 42.5799 16.9806 42.0238 15.4489L32.6242 18.862C32.8095 19.3721 32.9107 19.9102 32.9234 20.4547L42.9206 20.2221ZM42.0004 15.3858C41.4157 13.8407 40.5045 12.4387 39.3273 11.2774L32.3047 18.3966C32.4534 18.5433 32.5712 18.7232 32.6476 18.9251L42.0004 15.3858ZM39.4251 11.3766C38.2567 10.1581 36.8259 9.22043 35.2395 8.63749L31.7905 18.0239C31.9449 18.0806 32.0878 18.1732 32.2069 18.2974L39.4251 11.3766ZM35.2946 8.65812C33.749 8.06944 32.114 7.75067 30.4603 7.71615L30.2517 17.714C30.7582 17.7245 31.2599 17.8222 31.7354 18.0033L35.2946 8.65812ZM30.6407 7.72318C29.0945 7.635 28.5053 7.63647 25 7.63647V17.6365C28.5667 17.6365 28.8615 17.638 30.0713 17.707L30.6407 7.72318ZM25 7.63647C21.4947 7.63647 20.9055 7.635 19.3593 7.72318L19.9287 17.707C21.1385 17.638 21.4333 17.6365 25 17.6365V7.63647ZM19.5397 7.71615C17.886 7.75067 16.251 8.06944 14.7054 8.65812L18.2646 18.0033C18.7401 17.8222 19.2418 17.7245 19.7483 17.714L19.5397 7.71615ZM14.7423 8.64422C13.1708 9.22858 11.752 10.1583 10.5883 11.3627L17.7797 18.3113C17.908 18.1785 18.0615 18.0789 18.2277 18.0172L14.7423 8.64422ZM10.6965 11.2541C9.48677 12.4316 8.56136 13.8682 7.98748 15.4538L17.3905 18.8571C17.4515 18.6887 17.5485 18.5396 17.6715 18.4199L10.6965 11.2541ZM8.0076 15.3992C7.42687 16.9471 7.11304 18.5827 7.07906 20.2356L17.0769 20.4412C17.0877 19.9175 17.1872 19.4002 17.3704 18.9117L8.0076 15.3992ZM7.08587 20.0579C6.99856 21.612 7 22.2024 7 25.735H17C17 22.1419 17.0014 21.8416 17.0701 20.6188L7.08587 20.0579ZM7 25.735C7 29.2675 6.99856 29.8579 7.08587 31.412L17.0701 30.8511C17.0014 29.6283 17 29.328 17 25.735H7ZM7.07906 31.2343C7.11304 32.8872 7.42687 34.5228 8.0076 36.0708L17.3704 32.5582C17.1872 32.0697 17.0877 31.5524 17.0769 31.0288L7.07906 31.2343ZM7.98748 36.0161C8.56136 37.6017 9.48677 39.0383 10.6965 40.2158L17.6715 33.05C17.5485 32.9303 17.4515 32.7813 17.3905 32.6128L7.98748 36.0161ZM10.5883 40.1072C11.752 41.3116 13.1708 42.2413 14.7423 42.8257L18.2277 33.4527C18.0615 33.391 17.908 33.2914 17.7797 33.1586L10.5883 40.1072ZM14.7054 42.8118C16.251 43.4005 17.886 43.7193 19.5397 43.7538L19.7483 33.7559C19.2418 33.7454 18.7401 33.6477 18.2646 33.4667L14.7054 42.8118ZM19.3593 43.7467C20.9055 43.8349 21.4947 43.8334 25 43.8334V33.8334C21.4333 33.8334 21.1385 33.832 19.9287 33.763L19.3593 43.7467ZM25 43.8334C28.5053 43.8334 29.0945 43.8349 30.6407 43.7467L30.0713 33.763C28.8615 33.832 28.5667 33.8334 25 33.8334V43.8334ZM30.4603 43.7538C32.114 43.7193 33.749 43.4005 35.2946 42.8118L31.7354 33.4667C31.2599 33.6477 30.7582 33.7454 30.2517 33.7559L30.4603 43.7538ZM35.2395 42.8324C36.8259 42.2495 38.2567 41.3119 39.4251 40.0933L32.2069 33.1725C32.0878 33.2967 31.9449 33.3893 31.7905 33.446L35.2395 42.8324ZM39.3128 40.2068C40.5049 39.0404 41.4241 37.6258 42.0075 36.0652L32.6405 32.5638C32.5695 32.7536 32.459 32.9223 32.3192 33.059L39.3128 40.2068ZM42.0238 36.021C42.5799 34.4893 42.8827 32.8769 42.9206 31.2478L32.9234 31.0153C32.9107 31.5597 32.8095 32.0978 32.6242 32.6079L42.0238 36.021ZM42.922 31.1315C42.922 30.5256 42.9379 30.1792 42.9592 29.3821C42.98 28.6048 43 27.5582 43 25.735H33C33 27.4745 32.981 28.432 32.9628 29.1152C32.9451 29.7786 32.922 30.3491 32.922 31.1315H42.922ZM43 25.735C43 22.2024 43.0014 21.612 42.9141 20.0579L32.9299 20.6188C32.9986 21.8416 33 22.1419 33 25.735H43ZM30.5823 30.9174C30.5792 31.1876 30.5307 31.4546 30.4392 31.707L39.8408 35.1144C40.3155 33.8046 40.5658 32.424 40.5817 31.0313L30.5823 30.9174ZM30.4418 31.6999C30.4918 31.5626 30.5733 31.4352 30.6829 31.3288L37.6471 38.5052C38.6248 37.5564 39.3731 36.3989 39.8382 35.1214L30.4418 31.6999ZM30.5832 31.4283C30.6679 31.3413 30.773 31.2715 30.8922 31.2261L34.4478 40.5727C35.6934 40.0988 36.8187 39.3585 37.7468 38.4057L30.5832 31.4283ZM30.9435 31.2069C30.7025 31.2956 30.4492 31.3421 30.1942 31.3451L30.3098 41.3444C31.7052 41.3283 33.0872 41.0736 34.3965 40.5918L30.9435 31.2069ZM30.0004 31.3511C28.8336 31.4099 28.4581 31.4233 25.052 31.4233V41.4233C28.4839 41.4233 29.0704 41.4106 30.5036 41.3384L30.0004 31.3511ZM25.052 31.4233C21.595 31.4233 21.2739 31.4216 20.1537 31.3538L19.5503 41.3356C21.0301 41.4251 21.671 41.4233 25.052 41.4233V31.4233ZM19.7577 31.3456C19.4805 31.3509 19.204 31.3079 18.9401 31.2181L15.7199 40.6854C17.0799 41.148 18.5098 41.3709 19.9463 41.3438L19.7577 31.3456ZM19.2591 31.3389C19.3568 31.3798 19.4424 31.4393 19.5117 31.5117L12.2883 38.427C13.1671 39.3451 14.2262 40.0734 15.4009 40.5647L19.2591 31.3389ZM19.3909 31.3898C19.5106 31.5065 19.5992 31.6468 19.6527 31.7982L10.2233 35.128C10.6794 36.4194 11.4264 37.5907 12.4091 38.549L19.3909 31.3898ZM19.5794 31.6037C19.4797 31.3547 19.424 31.089 19.4156 30.8188L9.42042 31.1299C9.46516 32.5676 9.76154 33.9869 10.2966 35.3225L19.5794 31.6037ZM19.418 30.9744C19.418 30.2291 19.3947 29.6627 19.3771 29.0191C19.3589 28.3512 19.34 27.4143 19.34 25.735H9.34C9.34 27.5005 9.36006 28.5284 9.38086 29.2915C9.40232 30.0789 9.418 30.4097 9.418 30.9744H19.418ZM19.34 25.735C19.34 22.2526 19.3417 21.9254 19.4092 20.7928L9.42684 20.1983C9.33829 21.6854 9.34 22.3275 9.34 25.735H19.34ZM19.4179 20.5298C19.4197 20.2609 19.4685 19.995 19.5613 19.7446L10.1847 16.2691C9.68719 17.6113 9.42793 19.0302 9.41812 20.4613L19.4179 20.5298ZM19.4928 19.9192C19.4318 20.0667 19.3367 20.2015 19.2121 20.3117L12.5879 12.8203C11.5696 13.7208 10.7719 14.8413 10.2532 16.0945L19.4928 19.9192ZM19.6592 19.8627C19.5729 19.9612 19.4638 20.0421 19.3379 20.0972L15.3221 10.939C14.1024 11.4739 13.017 12.2701 12.1408 13.2693L19.6592 19.8627ZM19.0385 20.2172C19.2962 20.1235 19.567 20.0748 19.8395 20.0726L19.7605 10.0729C18.3482 10.0841 16.9486 10.3366 15.6215 10.8191L19.0385 20.2172ZM19.8 20.0728C20.5417 20.0728 21.1065 20.0492 21.7437 20.0316C22.4055 20.0133 23.3343 19.9942 25 19.9942V9.9942C23.2467 9.9942 22.2255 10.0144 21.4671 10.0354C20.684 10.0571 20.3583 10.0728 19.8 10.0728V20.0728ZM25 19.9942C28.457 19.9942 28.7781 19.996 29.8983 20.0637L30.5017 10.0819C29.0219 9.99244 28.381 9.9942 25 9.9942V19.9942ZM30.1422 20.0725C30.3972 20.0754 30.6505 20.1219 30.8915 20.2106L34.3445 10.8257C33.0352 10.3439 31.6532 10.0893 30.2578 10.0731L30.1422 20.0725ZM30.8667 20.2014C30.7111 20.1432 30.5751 20.05 30.4682 19.9325L37.8618 13.1995C36.9029 12.1464 35.7064 11.3349 34.3693 10.8349L30.8667 20.2014ZM30.7318 20.201C30.6241 20.0993 30.5425 19.9774 30.4903 19.8454L39.7897 16.1683C39.3053 14.9432 38.5579 13.8375 37.5982 12.931L30.7318 20.201ZM30.4389 19.7098C30.5323 19.9675 30.5809 20.2405 30.582 20.5163L40.582 20.4748C40.5761 19.0525 40.3256 17.6414 39.8411 16.3039L30.4389 19.7098ZM30.5881 20.7434C30.6466 21.9221 30.66 22.3027 30.66 25.735H40.66C40.66 22.2774 40.6474 21.6888 40.5759 20.2478L30.5881 20.7434ZM30.66 25.735C30.66 29.1672 30.6466 29.5478 30.5881 30.7265L40.5759 31.2222C40.6474 29.7812 40.66 29.1926 40.66 25.735H30.66ZM24.9902 14.0154C22.6748 14.02 20.4159 14.7161 18.499 16.0114L24.0979 24.2971C24.371 24.1125 24.6883 24.0161 25.0098 24.0154L24.9902 14.0154ZM18.499 16.0114C16.5826 17.3064 15.0958 19.1407 14.2207 21.2782L23.4752 25.067C23.6056 24.7484 23.8243 24.4819 24.0979 24.2971L18.499 16.0114ZM14.2207 21.2782C13.3457 23.4153 13.1197 25.7637 13.5696 28.0282L23.3779 26.0796C23.3102 25.7388 23.3446 25.3859 23.4752 25.067L14.2207 21.2782ZM13.5696 28.0282C14.0195 30.2929 15.1265 32.3775 16.7565 34.0166L23.8473 26.9654C23.6109 26.7276 23.4455 26.4201 23.3779 26.0796L13.5696 28.0282ZM16.7565 34.0166C18.3869 35.6562 20.4676 36.7763 22.7378 37.2295L24.6957 27.4231C24.3793 27.3599 24.0833 27.2027 23.8473 26.9654L16.7565 34.0166ZM22.7378 37.2295C25.0082 37.6828 27.3606 37.4475 29.4961 36.555L25.6401 27.3284C25.3399 27.4538 25.0119 27.4862 24.6957 27.4231L22.7378 37.2295ZM29.4961 36.555C31.6313 35.6627 33.4499 34.1553 34.7266 32.2291L26.3913 26.7044C26.2035 26.9877 25.9406 27.2028 25.6401 27.3284L29.4961 36.555ZM34.7266 32.2291C36.003 30.3034 36.682 28.0435 36.682 25.735L26.682 25.735C26.682 26.0833 26.5794 26.4207 26.3913 26.7044L34.7266 32.2291ZM36.682 25.7447C36.685 24.2068 36.3862 22.6827 35.802 21.2596L26.5512 25.0573C26.6377 25.2679 26.6825 25.4951 26.682 25.7252L36.682 25.7447ZM35.802 21.2596C35.2178 19.8364 34.359 18.5412 33.2733 17.4494L26.1825 24.5007C26.3388 24.6579 26.4648 24.8467 26.5512 25.0573L35.802 21.2596ZM33.2733 17.4494C32.1876 16.3576 30.8962 15.4907 29.4726 14.9007L25.6437 24.1386C25.8428 24.2211 26.0263 24.3435 26.1825 24.5007L33.2733 17.4494ZM29.4726 14.9007C28.0488 14.3106 26.522 14.0094 24.9803 14.0155L25.0197 24.0154C25.2327 24.0146 25.4446 24.0561 25.6437 24.1386L29.4726 14.9007ZM25 25.0968C25.1411 25.0968 25.276 25.1391 25.3873 25.214L19.8026 33.5093C21.3377 34.5428 23.1465 35.0968 25 35.0968V25.0968ZM25.3873 25.214C25.4981 25.2887 25.5788 25.3907 25.625 25.503L16.3761 29.3053C17.0775 31.0116 18.2679 32.4761 19.8026 33.5093L25.3873 25.214ZM25.625 25.503C25.671 25.615 25.6825 25.736 25.6595 25.8524L15.8489 23.9156C15.4918 25.7242 15.6747 27.5993 16.3761 29.3053L25.625 25.503ZM25.6595 25.8524C25.6365 25.969 25.5788 26.0812 25.4878 26.1729L18.3901 19.1285C17.0883 20.4402 16.2059 22.1068 15.8489 23.9156L25.6595 25.8524ZM25.4878 26.1729C25.3964 26.2649 25.2754 26.3319 25.138 26.3595L23.1729 16.5545C21.356 16.9186 19.6923 17.8165 18.3901 19.1285L25.4878 26.1729ZM25.138 26.3595C25.0004 26.3871 24.8581 26.3726 24.7309 26.3194L28.5824 17.0909C26.8731 16.3775 24.99 16.1903 23.1729 16.5545L25.138 26.3595ZM24.7309 26.3194C24.604 26.2665 24.5017 26.1794 24.4324 26.075L32.7664 20.5483C31.7459 19.0094 30.2913 17.8041 28.5824 17.0909L24.7309 26.3194ZM24.4324 26.075C24.3635 25.9711 24.329 25.8528 24.329 25.735H34.329C34.329 23.8917 33.7867 22.0868 32.7664 20.5483L24.4324 26.075ZM24.329 25.735C24.329 25.6564 24.3443 25.5777 24.375 25.503L33.6239 29.3053C34.0897 28.1722 34.329 26.9592 34.329 25.735L24.329 25.735ZM24.375 25.503C24.4057 25.4283 24.4517 25.358 24.5122 25.297L31.6099 32.3414C32.4744 31.4704 33.1581 30.4384 33.6239 29.3053L24.375 25.503ZM24.5122 25.297C24.5728 25.236 24.6468 25.1856 24.7309 25.1505L28.5824 34.379C29.717 33.9055 30.7454 33.2125 31.6099 32.3414L24.5122 25.297ZM24.7309 25.1505C24.8151 25.1153 24.9066 25.0968 25 25.0968L25 35.0968C26.2304 35.0968 27.4478 34.8525 28.5824 34.379L24.7309 25.1505Z" fill="#F9FFEA" fill-opacity="0.4" mask="url(#path-1-inside-1_443_44)"/>
<circle cx="24.5" cy="24.5" r="24" stroke="#F9FFEA" stroke-opacity="0.4"/>
</svg>
