<svg width="101" height="71" viewBox="0 0 101 71" fill="none" xmlns="http://www.w3.org/2000/svg">
<path d="M93.879 20.5H98.247V52H93.879V48.913C93.193 50.005 92.297 50.887 91.191 51.559C90.085 52.217 88.79 52.546 87.306 52.546C85.78 52.546 84.352 52.259 83.022 51.685C81.692 51.111 80.516 50.32 79.494 49.312C78.486 48.29 77.695 47.114 77.121 45.784C76.547 44.454 76.26 43.026 76.26 41.5C76.26 39.974 76.547 38.546 77.121 37.216C77.695 35.872 78.486 34.696 79.494 33.688C80.516 32.666 81.692 31.868 83.022 31.294C84.352 30.72 85.78 30.433 87.306 30.433C88.79 30.433 90.085 30.769 91.191 31.441C92.297 32.099 93.193 32.967 93.879 34.045V20.5ZM87.348 48.325C88.58 48.325 89.658 48.024 90.582 47.422C91.506 46.806 92.22 45.98 92.724 44.944C93.242 43.908 93.501 42.76 93.501 41.5C93.501 40.226 93.242 39.071 92.724 38.035C92.206 36.999 91.485 36.18 90.561 35.578C89.651 34.962 88.58 34.654 87.348 34.654C86.13 34.654 85.017 34.962 84.009 35.578C83.015 36.194 82.217 37.02 81.615 38.056C81.027 39.092 80.733 40.24 80.733 41.5C80.733 42.774 81.034 43.929 81.636 44.965C82.252 45.987 83.057 46.806 84.051 47.422C85.059 48.024 86.158 48.325 87.348 48.325Z" fill="white"/>
<path d="M12.999 54.546C11.389 54.546 9.842 54.294 8.358 53.79C6.874 53.286 5.579 52.565 4.473 51.627C3.367 50.675 2.576 49.548 2.1 48.246L6.195 46.713C6.433 47.385 6.888 47.987 7.56 48.519C8.246 49.037 9.058 49.443 9.996 49.737C10.948 50.031 11.949 50.178 12.999 50.178C14.119 50.178 15.169 49.996 16.149 49.632C17.143 49.268 17.941 48.764 18.543 48.12C19.159 47.476 19.467 46.72 19.467 45.852C19.467 44.956 19.145 44.221 18.501 43.647C17.871 43.073 17.059 42.618 16.065 42.282C15.085 41.946 14.063 41.694 12.999 41.526C10.941 41.19 9.093 40.7 7.455 40.056C5.831 39.412 4.543 38.509 3.591 37.347C2.653 36.185 2.184 34.673 2.184 32.811C2.184 31.061 2.681 29.535 3.675 28.233C4.683 26.931 6.006 25.923 7.644 25.209C9.296 24.481 11.081 24.117 12.999 24.117C14.581 24.117 16.107 24.369 17.577 24.873C19.061 25.363 20.363 26.084 21.483 27.036C22.617 27.974 23.429 29.115 23.919 30.459L19.782 31.95C19.544 31.264 19.089 30.669 18.417 30.165C17.745 29.647 16.933 29.241 15.981 28.947C15.043 28.653 14.049 28.506 12.999 28.506C11.879 28.492 10.829 28.674 9.849 29.052C8.883 29.416 8.092 29.92 7.476 30.564C6.86 31.208 6.552 31.957 6.552 32.811C6.552 33.861 6.839 34.659 7.413 35.205C7.987 35.751 8.757 36.157 9.723 36.423C10.703 36.675 11.795 36.906 12.999 37.116C14.931 37.424 16.716 37.935 18.354 38.649C20.006 39.363 21.329 40.315 22.323 41.505C23.331 42.681 23.835 44.13 23.835 45.852C23.835 47.588 23.331 49.114 22.323 50.43C21.329 51.732 20.006 52.747 18.354 53.475C16.716 54.189 14.931 54.546 12.999 54.546Z" fill="white"/>
<path d="M65.2694 39.9873C65.2728 40.0454 65.2713 40.2919 65.2701 40.473C65.2696 40.5603 65.2691 40.6323 65.2694 40.6608C65.2694 41.3527 64.7954 42.193 64.5 43L54.1986 42.9202L49.5347 42.9202C49.6571 42.8833 49.7986 42.8393 49.9546 42.7883C51.3811 42.3226 54.0123 41.2851 54.2276 39.9873H65.2694Z" fill="white"/>
<path d="M57.3823 59.495C56.578 60.0381 55.9294 60.516 55.9294 60.5811L50.9222 64.1221L45.9409 60.6029L45.4868 60.2987L57.3823 59.495Z" fill="white"/>
<path d="M49.9103 32.8839L51 33.6876L48.1263 39.9873H47.707C47.6715 39.7419 47.5932 39.4282 47.462 39.0856C47.3416 38.758 47.1912 38.4558 47.0096 38.1773C47.0023 38.1662 46.995 38.1551 46.9876 38.144C46.4685 37.3315 45.639 36.5465 44.3842 36.2292L47.1084 31.4067C48.0423 31.776 49.2877 32.4494 49.9103 32.8839Z" fill="white"/>
<path d="M54.8657 31.4067C56.3186 30.8201 56.9412 30.7115 59.0687 30.6463L59.1465 35.86C56.4483 36.0555 54.6686 37.3587 54.2276 39.9873H48.3796H48.1263L51 33.6876L52.0637 32.8839C52.6604 32.4277 53.9058 31.776 54.8657 31.4067Z" fill="white"/>
<path fill-rule="evenodd" clip-rule="evenodd" d="M23.9401 1.45013C24.5887 0.841873 25.2373 0.581192 26.8718 0.277061C28.8695 -0.0922394 33.2022 -0.0922394 35.5113 0.277061C38.2873 0.733253 41.0633 1.68909 43.554 3.10111C46.1744 4.55658 48.198 6.31616 49.9363 8.68401L51.2276 14.2875L51.934 9.27054C52.7531 6.87194 55.0916 4.82677 56.2635 3.80198L56.3445 3.73108C57.5639 2.66663 58.7573 2.38424 60.1583 2.86215C61.7669 3.42696 62.4414 5.27344 61.5334 6.62029C61.2999 6.96786 60.6253 7.72819 60.0805 8.33644C58.1606 10.3567 56.2667 13.6804 55.3846 16.5261C55.0992 17.482 54.9176 18.3075 54.9695 18.3509C55.0214 18.3944 55.9813 18.0902 57.1229 17.6775C60.7551 16.3524 62.8565 16.0048 66.9557 15.9613C70.3804 15.9396 70.7177 15.9831 72.7932 16.613C75.5952 17.4385 77.4891 18.4813 79.6166 20.3929C82.3407 22.8042 84.1309 25.9758 84.7276 29.5384C85.0908 31.6239 85.0908 37.4892 84.7276 39.7702C84.2606 42.7897 83.4304 46.0048 82.3407 48.9591C78.8382 58.5174 72.897 65.4472 66.359 67.5543C64.3094 68.206 60.9367 68.3581 58.913 67.8585C56.8894 67.3806 54.3468 66.2727 52.4529 65.0779L50.9222 64.1221L49.3396 65.1213C46.0187 67.2068 43.0092 68.1843 39.818 68.1843C37.9663 68.1843 36.1839 67.8124 34.4554 67.0602C34.3466 67.0129 34.238 66.9641 34.1296 66.9137C31.8828 65.8698 29.7259 64.1777 27.6242 61.8194C22.6688 56.2582 18.4918 46.8303 17.2724 38.4233C16.9092 35.86 16.9092 30.4508 17.2724 28.8867C18.2842 24.4986 20.8527 20.8708 24.6147 18.5681C25.5746 18.0033 26.3529 17.482 26.3529 17.4385C26.3529 17.3734 26.0416 16.9389 25.6784 16.4393C24.6147 15.0272 23.5769 12.8332 23.1358 11.0084C22.3575 7.81507 22.7986 2.49285 23.9401 1.45013ZM45.9409 60.6029L50.9222 64.1221L55.9294 60.5811C55.9294 60.7984 58.9649 62.319 60.0546 62.6449C62.7528 63.4269 65.0618 62.7535 67.9935 60.277C71.963 56.9533 75.0763 51.718 77.1 44.9838C78.2415 41.2473 78.7604 37.8151 78.7604 34.2307C78.7604 29.8643 77.8783 27.1272 75.7249 24.7376C74.4277 23.2821 72.871 22.2828 70.8733 21.6311C69.0832 21.0446 65.425 21.0663 62.5971 21.6746C59.0946 22.4349 57.3563 23.2821 54.7879 25.4544C51.3373 28.3654 50.5849 28.3871 47.29 25.5631C44.8771 23.4994 42.594 22.3697 39.5326 21.718C37.1717 21.2184 34.1103 21.0229 32.6314 21.2618C28.5063 21.9787 25.4968 24.4335 23.8623 28.4306C23.4472 29.4516 23.3693 30.2553 23.3693 33.7528C23.3953 37.5544 23.4472 38.1409 24.2514 41.2473C26.8459 51.5225 32.2942 60.2118 37.5349 62.4494C38.6505 62.9055 39.1694 62.9924 40.2591 62.9273C41.6601 62.8187 43.8653 62.0149 45.1885 61.1242L45.9409 60.6029ZM46.7451 16.9172C46.1744 11.5732 41.2449 6.88097 34.7848 5.5124C33.2282 5.18655 29.4403 5.05621 29.129 5.33861C28.7917 5.59929 28.9473 8.79263 29.3365 10.0743C29.8295 11.6818 30.9451 13.6804 32.0347 14.8969C32.839 15.831 32.839 15.831 34.4994 15.831C38.1316 15.831 43.3983 16.852 45.7592 18.0251C46.2262 18.2423 46.6932 18.4378 46.7711 18.4378C46.8489 18.4378 46.8489 17.7644 46.7451 16.9172Z" fill="#335A13"/>
<path d="M66.7741 51.1315C65.0099 53.2386 59.7173 57.9309 57.3823 59.495L50.8214 56.8195C51.4169 56.8449 52.0997 56.4396 53.5 55.3893C53.7721 55.1852 54.0103 54.8997 54.3468 54.6507C58.5476 51.1711 63.6798 46.5829 64.5 43C64.7954 42.193 65.2694 41.3527 65.2694 40.6608C65.2691 40.6323 65.2696 40.5603 65.2701 40.473C65.2713 40.2919 65.2728 40.0454 65.2694 39.9873C65.077 36.7525 62.5465 35.628 59.1465 35.86L59.0687 30.6463C64.7764 30.4508 68.9535 32.7535 70.9771 37.2285C71.7035 38.8578 71.7814 41.747 71.1328 43.8541C70.5101 45.8527 68.72 48.8505 66.7741 51.1315Z" fill="white"/>
<path d="M54.2276 39.9873C54.0123 41.2851 51.3811 42.3226 49.9546 42.7883C48.9648 42.2977 48.3358 41.2501 48.1263 39.9873H48.3796H54.2276Z" fill="white"/>
<path d="M49.5347 42.9202C48.2894 42.3988 47.9645 41.5949 47.757 40.2915C47.7424 40.1882 47.7257 40.0868 47.707 39.9873H48.1263C48.3358 41.2501 48.9648 42.2977 49.9546 42.7883C49.7986 42.8393 49.6571 42.8833 49.5347 42.9202Z" fill="white"/>
<path d="M47.757 40.2915C47.9645 41.5949 48.2894 42.3988 49.5347 42.9202L39.8378 42.9172L37.0146 42.9169C36.9462 42.7063 36.8861 42.4973 36.8344 42.2901C36.6182 41.4451 36.5527 40.6788 36.6397 39.9873H47.707C47.7257 40.0868 47.7424 40.1882 47.757 40.2915Z" fill="white"/>
<path fill-rule="evenodd" clip-rule="evenodd" d="M42 30.5001C45.1133 30.5001 45.4739 30.7332 47.1084 31.4067L44.3842 36.2292C42.8275 35.621 41.0114 35.7079 39.5326 36.4248C37.7929 37.2657 36.8343 38.4389 36.6397 39.9873L37 40.5001C36.7612 41.9398 38.2422 42.1262 37 42.5001L36.9839 42.9172L37.0146 42.9169C37.5767 44.6473 38.7008 46.4881 40.3392 48.3874C41.1474 49.3242 42.0806 50.2753 43.1333 51.2343C44.6423 52.609 46.3967 54.0001 48.3796 55.3893C48.6369 55.5691 48.8655 55.7334 49.0712 55.8812C49.8915 56.4707 50.3489 56.7994 50.8214 56.8195L57.3823 59.495L45.4868 60.2987L45.0328 59.9946C34.3957 52.8911 28.7398 44.2669 30.6337 38.0975C31.5677 35.1214 33.8768 32.797 37.1976 31.4284C38.884 30.7332 38.8607 30.5001 42 30.5001ZM31.5174 43.2555C31.4783 43.2581 31.4607 43.2582 31.4699 43.2555H31.5174Z" fill="white"/>
<path d="M39.5326 21.718C42.594 22.3697 44.8771 23.4994 47.29 25.5631C50.5849 28.3871 51.3373 28.3654 54.7879 25.4544C57.3563 23.2821 59.0946 22.4349 62.5971 21.6746C65.425 21.0663 69.0832 21.0446 70.8733 21.6311C72.871 22.2828 74.4277 23.2821 75.7249 24.7376C77.8783 27.1272 78.7604 29.8643 78.7604 34.2307C78.7604 37.8151 78.2415 41.2473 77.1 44.9838C75.0763 51.718 71.963 56.9533 67.9935 60.277C65.0618 62.7535 62.7528 63.4269 60.0546 62.6449C58.9649 62.319 55.9294 60.7984 55.9294 60.5811C55.9294 60.516 56.578 60.0381 57.3823 59.495C59.7173 57.9309 65.0099 53.2386 66.7741 51.1315C68.72 48.8505 70.5101 45.8527 71.1328 43.8541C71.7814 41.747 71.7035 38.8578 70.9771 37.2285C68.9535 32.7535 64.7764 30.4508 59.0687 30.6463C56.9412 30.7115 56.3186 30.8201 54.8657 31.4067C53.9058 31.776 52.6604 32.4277 52.0637 32.8839L51 33.6876L49.9103 32.8839C49.2877 32.4494 48.0423 31.776 47.1084 31.4067C45.4739 30.7332 45.1133 30.5001 42 30.5001C38.8607 30.5001 38.884 30.7332 37.1976 31.4284C33.8768 32.797 31.5677 35.1214 30.6337 38.0975C28.7398 44.2669 34.3957 52.8911 45.0328 59.9946L45.4868 60.2987L45.9409 60.6029L45.1885 61.1242C43.8653 62.0149 41.6601 62.8187 40.2591 62.9273C39.1694 62.9924 38.6505 62.9055 37.5349 62.4494C32.2942 60.2118 26.8459 51.5225 24.2514 41.2473C23.4472 38.1409 23.3953 37.5544 23.3693 33.7528C23.3693 30.2553 23.4472 29.4516 23.8623 28.4306C25.4968 24.4335 28.5063 21.9787 32.6314 21.2618C34.1103 21.0229 37.1717 21.2184 39.5326 21.718Z" fill="#90A955"/>
<path d="M54 42.5C54.1667 44.1667 56.5 49 62 48.5L58 52C50.5 50.5 49.6667 44.1667 49.5 42.5H54Z" fill="white" stroke="white"/>
<path d="M40 49C45.5 49.5 47.8333 44.6667 48 43H52.5C52.3333 44.6667 51.5 51 44 52.5L40 49Z" fill="white" stroke="white"/>
</svg>
