<svg width="48" height="49" viewBox="0 0 48 49" fill="none" xmlns="http://www.w3.org/2000/svg">
<path fill-rule="evenodd" clip-rule="evenodd" d="M21.0509 30.1944L21.0495 20.5344L30.0491 25.3808L21.0509 30.1944ZM40.8098 18.8602C40.8098 18.8602 40.4837 16.4918 39.4859 15.4477C38.2189 14.0779 36.7999 14.0715 36.149 13.9918C31.4882 13.644 24.4974 13.644 24.4974 13.644H24.4822C24.4822 13.644 17.4913 13.644 12.8306 13.9925C12.179 14.0715 10.7607 14.0779 9.49302 15.4477C8.49453 16.4911 8.16979 18.8602 8.16979 18.8602C8.16979 18.8602 7.83673 21.6432 7.83673 24.4249V27.0337C7.83673 29.816 8.16979 32.5976 8.16979 32.5976C8.16979 32.5976 8.49453 34.9667 9.49302 36.0101C10.7607 37.3799 12.4246 37.3372 13.1657 37.4802C15.8302 37.7441 24.4898 37.8259 24.4898 37.8259C24.4898 37.8259 31.4882 37.8152 36.149 37.4667C36.7999 37.3863 38.2189 37.3799 39.4859 36.0101C40.4844 34.9667 40.8098 32.5976 40.8098 32.5976C40.8098 32.5976 41.1429 29.8167 41.1429 27.0337V24.4249C41.1429 21.6432 40.8098 18.8602 40.8098 18.8602Z" fill="white"/>
<path d="M24.576 14.144C24.628 14.1441 24.7057 14.1447 24.8055 14.145C25.0051 14.1457 25.2958 14.1472 25.659 14.1499C26.3858 14.1553 27.4034 14.1653 28.5662 14.187C30.8944 14.2304 33.7962 14.3179 36.1121 14.4907V14.4897C36.758 14.5658 37.858 14.5852 38.907 15.5737L39.119 15.7876L39.1248 15.7935C39.5336 16.2215 39.8378 16.9717 40.0408 17.6831C40.139 18.0271 40.2086 18.3409 40.2527 18.5688C40.2748 18.6825 40.2904 18.774 40.3006 18.8364C40.3057 18.8676 40.309 18.8921 40.3113 18.9077C40.312 18.9119 40.3129 18.9155 40.3133 18.9185V18.9214C40.3134 18.9225 40.314 18.9241 40.3143 18.9263C40.3149 18.9313 40.316 18.9395 40.3172 18.9497C40.3196 18.9701 40.3225 19.0006 40.327 19.0405C40.3359 19.1206 40.3486 19.2388 40.3641 19.3892C40.395 19.6904 40.437 20.1217 40.4783 20.6392C40.561 21.6753 40.6424 23.0526 40.6424 24.4253V27.0337C40.6424 28.4071 40.561 29.7841 40.4783 30.8198C40.4371 31.3369 40.395 31.7679 40.3641 32.0688C40.3486 32.2192 40.3359 32.3375 40.327 32.4175C40.3225 32.4573 40.3196 32.488 40.3172 32.5083C40.316 32.5183 40.3149 32.5257 40.3143 32.5308C40.314 32.5333 40.3134 32.5354 40.3133 32.5366C40.3128 32.54 40.3122 32.5446 40.3113 32.5503C40.309 32.5659 40.3057 32.5904 40.3006 32.6216C40.2905 32.684 40.2747 32.7756 40.2527 32.8892C40.2086 33.1172 40.14 33.4318 40.0418 33.7759C39.8642 34.3985 39.6084 35.0502 39.2733 35.4897L39.1248 35.6646L39.119 35.6704C37.9997 36.8805 36.7817 36.8854 36.0945 36.9692C33.7812 37.1416 30.8857 37.2308 28.5613 37.2769C27.3978 37.2999 26.3796 37.3124 25.6522 37.3188C25.2887 37.3221 24.9975 37.3237 24.7977 37.3247C24.6979 37.3252 24.6203 37.3255 24.5682 37.3257H24.4695C24.4532 37.3255 24.429 37.325 24.3973 37.3247C24.3334 37.324 24.2388 37.3232 24.118 37.3218C23.8764 37.319 23.5284 37.315 23.1024 37.3091C22.2497 37.2973 21.085 37.2791 19.8377 37.2524C17.3444 37.1991 14.5484 37.1126 13.2322 36.9839C12.4176 36.8332 11.1451 36.8655 10.074 35.8833L9.86017 35.6704L9.85431 35.6646L9.70587 35.4897C9.37082 35.0503 9.1158 34.3985 8.93829 33.7759C8.84022 33.4318 8.7714 33.1172 8.72736 32.8892C8.70541 32.7755 8.68962 32.684 8.6795 32.6216C8.67449 32.5906 8.67011 32.5669 8.66779 32.5513L8.66583 32.5337C8.66574 32.5329 8.66595 32.5318 8.66583 32.5308C8.66524 32.5258 8.66406 32.5183 8.6629 32.5083C8.66055 32.488 8.65662 32.4574 8.65216 32.4175C8.64322 32.3374 8.63048 32.2192 8.61505 32.0688C8.58415 31.7677 8.54306 31.3361 8.50177 30.8188C8.4191 29.7831 8.33673 28.4066 8.33673 27.0337V24.4253C8.33673 23.0526 8.41909 21.6753 8.50177 20.6392C8.54306 20.1218 8.58415 19.6904 8.61505 19.3892C8.63048 19.2387 8.64322 19.1206 8.65216 19.0405C8.65663 19.0006 8.66054 18.9701 8.6629 18.9497C8.66408 18.9395 8.66524 18.9313 8.66583 18.9263V18.9214C8.66634 18.9179 8.66688 18.9128 8.66779 18.9067C8.67011 18.8911 8.67447 18.8675 8.6795 18.8364C8.68961 18.7741 8.70541 18.6825 8.72736 18.5688C8.7714 18.3408 8.84022 18.0262 8.93829 17.6821C9.11579 17.0595 9.37083 16.4078 9.70587 15.9683L9.85431 15.7935L9.86017 15.7876C10.9777 14.58 12.1925 14.5715 12.8797 14.4897C15.1937 14.3172 18.0897 14.2314 20.4139 14.188C21.5766 14.1663 22.5944 14.1553 23.3211 14.1499C23.6843 14.1472 23.975 14.1457 24.1746 14.145C24.2742 14.1447 24.3511 14.1441 24.4031 14.144H24.576ZM20.5496 20.5347L20.5506 30.1948V31.0288L21.2869 30.6353L30.285 25.8218L31.1063 25.3823L30.2859 24.9409L21.2869 20.0942L20.5496 19.6968V20.5347Z" stroke="#F9FFEA" stroke-opacity="0.4"/>
<path d="M24 0.5C36.969 0.5 47.5 11.2354 47.5 24.5C47.5 37.7646 36.969 48.5 24 48.5C11.031 48.5 0.5 37.7646 0.5 24.5C0.5 11.2354 11.031 0.5 24 0.5Z" stroke="#F9FFEA" stroke-opacity="0.4"/>
</svg>
