<svg width="48" height="49" viewBox="0 0 48 49" fill="none" xmlns="http://www.w3.org/2000/svg">
<path fill-rule="evenodd" clip-rule="evenodd" d="M21.0509 30.1944L21.0495 20.5344L30.0491 25.3808L21.0509 30.1944ZM40.8098 18.8602C40.8098 18.8602 40.4837 16.4918 39.4859 15.4477C38.2189 14.0779 36.7999 14.0715 36.149 13.9918C31.4882 13.644 24.4974 13.644 24.4974 13.644H24.4822C24.4822 13.644 17.4913 13.644 12.8306 13.9925C12.179 14.0715 10.7607 14.0779 9.49302 15.4477C8.49453 16.4911 8.16979 18.8602 8.16979 18.8602C8.16979 18.8602 7.83673 21.6432 7.83673 24.4249V27.0337C7.83673 29.816 8.16979 32.5976 8.16979 32.5976C8.16979 32.5976 8.49453 34.9667 9.49302 36.0101C10.7607 37.3799 12.4246 37.3372 13.1657 37.4802C15.8302 37.7441 24.4898 37.8259 24.4898 37.8259C24.4898 37.8259 31.4882 37.8152 36.149 37.4667C36.7999 37.3863 38.2189 37.3799 39.4859 36.0101C40.4844 34.9667 40.8098 32.5976 40.8098 32.5976C40.8098 32.5976 41.1429 29.8167 41.1429 27.0337V24.4249C41.1429 21.6432 40.8098 18.8602 40.8098 18.8602Z" fill="white"/>
<path d="M20.5509 30.1944L20.5511 31.0288L21.2868 30.6352L30.285 25.8216L31.1064 25.3822L30.2862 24.9405L21.2866 20.0942L20.5494 19.6972L20.5495 20.5345L20.5509 30.1944ZM39.1188 15.7872L39.1188 15.7873L39.1244 15.7932C39.5334 16.2211 39.8381 16.9711 40.0412 17.6827C40.1394 18.0268 40.2082 18.3409 40.2524 18.5689C40.2744 18.6826 40.2902 18.7743 40.3003 18.8367C40.3026 18.8505 40.3045 18.8629 40.3062 18.8738C40.3084 18.8874 40.3101 18.8986 40.3114 18.9073L40.3139 18.9244L40.3142 18.9268L40.3169 18.9497L40.3272 19.0407C40.3361 19.1209 40.349 19.239 40.3644 19.3895C40.3953 19.6908 40.4366 20.1218 40.4779 20.6392C40.5606 21.6753 40.6429 23.0521 40.6429 24.4249V27.0337C40.6429 28.4071 40.5606 29.7837 40.4779 30.8195C40.4366 31.3367 40.3953 31.7675 40.3644 32.0686C40.349 32.219 40.3362 32.3371 40.3272 32.4171L40.3169 32.5081L40.3142 32.531L40.3139 32.5336L40.3114 32.5507C40.309 32.5663 40.3054 32.5901 40.3003 32.6213C40.2902 32.6837 40.2744 32.7754 40.2524 32.8891C40.2083 33.1172 40.1396 33.4313 40.0414 33.7754C39.8384 34.4871 39.5337 35.2369 39.1246 35.6644L39.1246 35.6643L39.1188 35.6706C38.1103 36.761 37.0216 36.8729 36.3134 36.9458C36.2378 36.9536 36.1665 36.9609 36.1 36.969C33.7857 37.1416 30.8879 37.2309 28.5617 37.2771C27.3978 37.3001 26.3792 37.3123 25.6517 37.3188C25.288 37.322 24.9971 37.3238 24.7972 37.3247L24.568 37.3257L24.5089 37.3258L24.4939 37.3259L24.4902 37.3259L24.4893 37.3259H24.4891L24.4883 37.3258L24.4698 37.3256L24.3971 37.3249L24.1182 37.3219C23.8765 37.3191 23.5283 37.3149 23.102 37.309C22.2494 37.2972 21.085 37.2788 19.8376 37.2521C17.3472 37.1988 14.5549 37.1132 13.2368 36.9848C13.0818 36.9559 12.9101 36.9338 12.7263 36.9101C11.8792 36.801 10.7745 36.6587 9.85998 35.6705L9.86003 35.6704L9.85425 35.6644C9.44519 35.2369 9.14068 34.4872 8.93782 33.7755C8.83974 33.4314 8.77111 33.1173 8.72706 32.8893C8.70509 32.7755 8.68937 32.6839 8.67926 32.6215C8.6742 32.5903 8.67055 32.5664 8.66823 32.5508L8.66573 32.5337L8.66567 32.5333L8.6654 32.531L8.66273 32.5081L8.65239 32.4171C8.64344 32.337 8.63059 32.219 8.61514 32.0685C8.58424 31.7674 8.54296 31.3365 8.50168 30.8192C8.419 29.7834 8.33673 28.4067 8.33673 27.0337V24.4249C8.33673 23.0521 8.419 21.6753 8.50168 20.6392C8.54297 20.1218 8.58424 19.6908 8.61514 19.3895C8.63059 19.239 8.64344 19.1209 8.65239 19.0407L8.66273 18.9497L8.6654 18.9268L8.66568 18.9245L8.66573 18.9241L8.66823 18.907C8.67055 18.8914 8.6742 18.8676 8.67926 18.8364C8.68937 18.7739 8.70509 18.6823 8.72706 18.5685C8.77111 18.3405 8.83974 18.0264 8.93782 17.6823C9.14068 16.9706 9.44519 16.2209 9.85425 15.7934L9.85431 15.7935L9.85998 15.7873C10.871 14.6948 11.9618 14.5844 12.6694 14.5127C12.7437 14.5052 12.8137 14.4981 12.879 14.4903C15.1931 14.3177 18.089 14.231 20.4135 14.1875C21.5764 14.1658 22.594 14.1549 23.3208 14.1495C23.6841 14.1468 23.9747 14.1454 24.1744 14.1447L24.4033 14.1441L24.4624 14.1441L24.4773 14.144L24.481 14.144L24.4819 14.144H24.4821L24.4822 13.644V14.144H24.4974V13.644L24.4975 14.144H24.4977L24.4986 14.144L24.5023 14.144L24.5172 14.1441L24.5763 14.1441L24.8052 14.1447C25.0049 14.1454 25.2955 14.1468 25.6588 14.1495C26.3856 14.1549 27.4032 14.1657 28.5661 14.1874C30.8905 14.2308 33.7863 14.3173 36.1003 14.4896C36.1662 14.4975 36.2369 14.5047 36.3118 14.5124C37.0196 14.5846 38.1094 14.6959 39.1188 15.7872Z" stroke="#F9FFEA" stroke-opacity="0.4"/>
<path d="M47.5 24.5C47.5 37.7646 36.969 48.5 24 48.5C11.031 48.5 0.5 37.7646 0.5 24.5C0.5 11.2354 11.031 0.5 24 0.5C36.969 0.5 47.5 11.2354 47.5 24.5Z" stroke="#F9FFEA" stroke-opacity="0.4"/>
</svg>
