<svg width="22" height="23" viewBox="0 0 22 23" fill="none" xmlns="http://www.w3.org/2000/svg">
<path d="M12.9373 11.4988L21.5936 2.46248C21.8523 2.19197 21.9977 1.82506 21.9977 1.44249C21.9977 1.05992 21.8523 0.693015 21.5936 0.422496C21.3348 0.151976 20.9839 0 20.618 0C20.2521 0 19.9012 0.151976 19.6425 0.422496L11 9.47315L2.35751 0.422496C2.09878 0.151976 1.74787 3.39665e-07 1.38197 3.42515e-07C1.01607 3.45365e-07 0.665158 0.151976 0.406428 0.422496C0.147698 0.693015 0.00234521 1.05992 0.0023452 1.44249C0.0023452 1.82506 0.147698 2.19197 0.406428 2.46248L9.06265 11.4988L0.406428 20.5351C0.277645 20.6686 0.175427 20.8275 0.105671 21.0026C0.0359144 21.1776 0 21.3654 0 21.5551C0 21.7447 0.0359144 21.9325 0.105671 22.1075C0.175427 22.2826 0.277645 22.4415 0.406428 22.5751C0.53416 22.7097 0.686126 22.8166 0.853561 22.8895C1.021 22.9625 1.20059 23 1.38197 23C1.56336 23 1.74295 22.9625 1.91038 22.8895C2.07782 22.8166 2.22978 22.7097 2.35751 22.5751L11 13.5244L19.6425 22.5751C19.7702 22.7097 19.9222 22.8166 20.0896 22.8895C20.2571 22.9625 20.4366 23 20.618 23C20.7994 23 20.979 22.9625 21.1464 22.8895C21.3139 22.8166 21.4658 22.7097 21.5936 22.5751C21.7224 22.4415 21.8246 22.2826 21.8943 22.1075C21.9641 21.9325 22 21.7447 22 21.5551C22 21.3654 21.9641 21.1776 21.8943 21.0026C21.8246 20.8275 21.7224 20.6686 21.5936 20.5351L12.9373 11.4988Z" fill="black"/>
</svg>
