<svg width="68" height="68" viewBox="0 0 68 68" fill="none" xmlns="http://www.w3.org/2000/svg">
<rect width="68" height="68" rx="8" fill="#CBEA7B"/>
<g clip-path="url(#clip0_345_123)">
<path d="M23.561 16.7009C22.7407 18.5926 22.3557 20.4844 22.3557 22.3259C22.3557 28.4364 26.6748 33.442 33.4047 33.442C40.1347 33.442 44.4539 28.4364 44.4539 22.3259C44.4539 20.4844 44.0689 18.5926 43.2653 16.7009C42.897 15.8973 41.9427 15.7801 41.3066 16.433L37.5566 20.25L34.359 16.115C33.84 15.4453 32.9694 15.4453 32.4673 16.115L29.2697 20.25L25.503 16.433C24.8668 15.7801 23.9126 15.8973 23.561 16.7009ZM32.0654 50.4844C32.0654 51.2377 32.6514 51.74 33.4047 51.74C42.0599 51.74 50.0119 46.3996 52.6236 38.8996C52.9919 37.8783 52.6067 37.2254 51.5186 37.2254C42.9639 37.2254 36.8031 42.2477 34.3256 48.5926L34.7609 49.1619V31.7512H32.0654V50.4844ZM29.772 44.0893C26.6246 40.0044 21.5856 37.2254 15.2407 37.2254C14.1525 37.2254 13.7675 37.8783 14.1358 38.8996C16.3791 45.3952 22.6068 50.2834 29.9059 51.4386C29.8221 51.154 29.772 50.8192 29.772 50.4844V44.0893Z" fill="#262626"/>
</g>
<defs>
<clipPath id="clip0_345_123">
<rect width="38.7593" height="36.3114" fill="white" transform="translate(14 15.4286)"/>
</clipPath>
</defs>
</svg>
