<svg width="68" height="68" viewBox="0 0 68 68" fill="none" xmlns="http://www.w3.org/2000/svg">
<rect width="68" height="68" rx="8" fill="#CBEA7B"/>
<path d="M28.3092 52.8226C29.7154 52.8226 30.586 52.0357 30.5692 50.663L30.2344 31.8627C30.2344 31.2769 30.4855 30.8416 31.0045 30.6071C33.2143 29.6361 34.1686 28.615 34.0514 25.6853L33.5826 15.4062C33.5492 14.6696 33.1139 14.2511 32.4275 14.2511C31.7746 14.2511 31.3728 14.6864 31.3728 15.4397L31.49 25.4342C31.49 26.0201 31.1217 26.3884 30.5692 26.3884C30 26.3884 29.5983 26.0368 29.5983 25.4844L29.4309 15.1384C29.4141 14.4185 28.9956 14 28.3092 14C27.6228 14 27.221 14.4185 27.2043 15.1384L27.0369 25.4844C27.0369 26.0368 26.6351 26.3884 26.0659 26.3884C25.5134 26.3884 25.1284 26.0201 25.1284 25.4342L25.2456 15.4397C25.2456 14.6864 24.8605 14.2511 24.1909 14.2511C23.5045 14.2511 23.0692 14.6696 23.0358 15.4062L22.5838 25.6853C22.4498 28.615 23.4041 29.6361 25.6139 30.6071C26.1329 30.8416 26.384 31.2769 26.384 31.8627L26.0659 50.663C26.0492 52.0357 26.9029 52.8226 28.3092 52.8226ZM41.4007 38.2243L41.0491 50.5793C40.999 52.0357 41.8861 52.8226 43.2757 52.8226C44.6987 52.8226 45.5693 52.1027 45.5693 50.7634V15.2556C45.5693 14.4018 44.9833 14 44.3806 14C43.7444 14 43.326 14.3348 42.7903 15.1217C40.0949 18.9051 38.3204 25.9866 38.3204 32.683V33.5033C38.3204 34.6584 38.7389 35.5123 39.576 36.0647L40.5637 36.7344C41.1663 37.1529 41.4341 37.6217 41.4007 38.2243Z" fill="#262626"/>
</svg>
