<svg width="62" height="62" viewBox="0 0 62 62" fill="none" xmlns="http://www.w3.org/2000/svg">
<rect width="62" height="62" rx="31" fill="#4F772D"/>
<path fill-rule="evenodd" clip-rule="evenodd" d="M31 39.5C30.2958 39.5 29.725 38.9292 29.725 38.225L29.725 26.9405L26.394 30.6087C25.906 31.1163 25.0988 31.1321 24.5912 30.6441C24.0837 30.156 24.0678 29.3489 24.5559 28.8413L30.0809 22.8913C30.3213 22.6413 30.6531 22.5 31 22.5C31.3468 22.5 31.6786 22.6413 31.919 22.8913L37.444 28.8413C37.9321 29.3489 37.9163 30.156 37.4087 30.6441C36.9011 31.1321 36.094 31.1163 35.6059 30.6087L32.275 26.9405V38.225C32.275 38.9292 31.7041 39.5 31 39.5Z" fill="white"/>
</svg>
