<svg width="68" height="68" viewBox="0 0 68 68" fill="none" xmlns="http://www.w3.org/2000/svg">
<rect width="68" height="68" rx="8" fill="#CBEA7B"/>
<g clip-path="url(#clip0_345_133)">
<path d="M51.2506 25.7807L38.2401 19.827C36.8846 19.2157 35.7815 18.9233 34.6784 18.9499C33.5887 18.9233 32.4856 19.2157 31.1168 19.827L18.1196 25.7807C17.2691 26.1662 16.8571 26.8439 16.8571 27.5217C16.8571 28.1994 17.2691 28.864 18.1196 29.2627L23.595 31.7611L32.0073 27.8141C31.9276 27.7211 31.9009 27.6147 31.9009 27.5217C31.9009 26.6844 33.3096 26.0465 34.7316 26.0465C36.1669 26.0465 37.549 26.6844 37.549 27.5217C37.549 28.3855 36.1669 29.0367 34.7316 29.0367C34.2931 29.0367 33.8546 28.9702 33.4691 28.864L25.4422 32.6249L31.1168 35.2297C32.4856 35.8542 33.5887 36.1201 34.6784 36.1068C35.7815 36.1201 36.8846 35.8542 38.2401 35.2297L51.2506 29.2627C52.1011 28.864 52.5131 28.1994 52.5131 27.5217C52.5131 26.8439 52.1011 26.1662 51.2506 25.7807ZM25.3891 34.5918V42.6719C27.6217 44.0274 30.8112 44.8513 34.6784 44.8513C42.5194 44.8513 47.5694 41.4891 47.5694 37.5155V32.9438L38.9976 36.8643C37.4427 37.582 36.0341 37.9408 34.6784 37.9275C33.3362 37.9408 31.9142 37.582 30.3593 36.8643L25.3891 34.5918ZM21.8009 32.9438V37.5155C21.8009 38.6717 22.4653 40.1069 23.6614 41.3296V33.8077L21.8009 32.9438ZM23.6614 45.755H25.3891V42.6719C24.7246 42.2732 24.1398 41.8214 23.6614 41.3296V45.755ZM22.6115 45.8481V49.3433C22.6115 50.3932 23.2893 51.0709 24.3392 51.0709H24.698C25.7479 51.0709 26.4256 50.3932 26.4256 49.3433V45.8481C26.4256 44.7982 25.7479 44.1204 24.698 44.1204H24.3392C23.2893 44.1204 22.6115 44.7982 22.6115 45.8481Z" fill="#262626"/>
</g>
<defs>
<clipPath id="clip0_345_133">
<rect width="40" height="40" fill="white" transform="translate(14 14)"/>
</clipPath>
</defs>
</svg>
