<svg width="49" height="49" viewBox="0 0 49 49" fill="none" xmlns="http://www.w3.org/2000/svg">
<path d="M31.942 17.1686C31.6335 17.1686 31.3319 17.2607 31.0753 17.4335C30.8188 17.6062 30.6188 17.8516 30.5007 18.1389C30.3827 18.4261 30.3518 18.7421 30.412 19.047C30.4722 19.3519 30.6207 19.632 30.8389 19.8518C31.0571 20.0716 31.335 20.2213 31.6377 20.282C31.9403 20.3426 32.2539 20.3115 32.539 20.1925C32.824 20.0736 33.0677 19.8721 33.2391 19.6136C33.4105 19.3551 33.502 19.0512 33.502 18.7404C33.502 18.3235 33.3376 17.9237 33.0451 17.6289C32.7525 17.3342 32.3557 17.1686 31.942 17.1686ZM37.922 20.3384C37.8967 19.2516 37.6947 18.1764 37.324 17.1555C36.9935 16.282 36.479 15.491 35.816 14.837C35.1723 14.1656 34.3854 13.6505 33.515 13.3307C32.5045 12.9458 31.4361 12.7376 30.356 12.7151C28.978 12.6365 28.536 12.6365 25 12.6365C21.464 12.6365 21.022 12.6365 19.644 12.7151C18.5639 12.7376 17.4955 12.9458 16.485 13.3307C15.6162 13.6538 14.83 14.1684 14.184 14.837C13.5177 15.4856 13.0064 16.2784 12.689 17.1555C12.307 18.1737 12.1004 19.2501 12.078 20.3384C12 21.7268 12 22.1722 12 25.735C12 29.2977 12 29.7431 12.078 31.1315C12.1004 32.2198 12.307 33.2963 12.689 34.3145C13.0064 35.1915 13.5177 35.9843 14.184 36.6329C14.83 37.3015 15.6162 37.8162 16.485 38.1392C17.4955 38.5241 18.5639 38.7323 19.644 38.7549C21.022 38.8334 21.464 38.8334 25 38.8334C28.536 38.8334 28.978 38.8334 30.356 38.7549C31.4361 38.7323 32.5045 38.5241 33.515 38.1392C34.3854 37.8194 35.1723 37.3043 35.816 36.6329C36.4819 35.9814 36.9968 35.1897 37.324 34.3145C37.6947 33.2936 37.8967 32.2183 37.922 31.1315C37.922 29.7431 38 29.2977 38 25.735C38 22.1722 38 21.7268 37.922 20.3384ZM35.582 30.9744C35.5725 31.8058 35.4231 32.6296 35.14 33.4107C34.9324 33.9807 34.599 34.4958 34.165 34.917C33.7433 35.3499 33.2332 35.6851 32.67 35.8994C31.8948 36.1846 31.0772 36.3352 30.252 36.3447C28.952 36.4102 28.471 36.4233 25.052 36.4233C21.633 36.4233 21.152 36.4233 19.852 36.3447C18.9952 36.3609 18.142 36.228 17.33 35.9518C16.7915 35.7266 16.3048 35.3922 15.9 34.9694C15.4685 34.5486 15.1393 34.0331 14.938 33.4631C14.6206 32.6708 14.4446 31.8283 14.418 30.9744C14.418 29.6645 14.34 29.1799 14.34 25.735C14.34 22.2901 14.34 21.8054 14.418 20.4956C14.4238 19.6455 14.5778 18.8032 14.873 18.0069C15.1019 17.454 15.4531 16.9611 15.9 16.566C16.295 16.1157 16.7831 15.758 17.33 15.5181C18.1224 15.23 18.9576 15.0794 19.8 15.0728C21.1 15.0728 21.581 14.9942 25 14.9942C28.419 14.9942 28.9 14.9942 30.2 15.0728C31.0252 15.0823 31.8428 15.2329 32.618 15.5181C33.2088 15.7391 33.739 16.0982 34.165 16.566C34.591 16.9684 34.9239 17.4603 35.14 18.0069C35.4289 18.8045 35.5785 19.6465 35.582 20.4956C35.647 21.8054 35.66 22.2901 35.66 25.735C35.66 29.1799 35.647 29.6645 35.582 30.9744ZM25 19.0154C23.6816 19.018 22.3935 19.4143 21.2985 20.1542C20.2035 20.8942 19.3507 21.9445 18.8479 23.1726C18.3452 24.4006 18.2149 25.7513 18.4737 27.0539C18.7325 28.3565 19.3687 29.5526 20.3019 30.491C21.2351 31.4294 22.4234 32.0681 23.7167 32.3263C25.01 32.5845 26.3503 32.4507 27.5681 31.9417C28.786 31.4328 29.8267 30.5715 30.559 29.4668C31.2912 28.362 31.682 27.0634 31.682 25.735C31.6837 24.8509 31.512 23.9753 31.1766 23.1584C30.8413 22.3415 30.3489 21.5995 29.7279 20.975C29.1069 20.3506 28.3695 19.8559 27.5581 19.5196C26.7467 19.1833 25.8774 19.012 25 19.0154ZM25 30.0968C24.1438 30.0968 23.3068 29.8409 22.5949 29.3617C21.883 28.8824 21.3282 28.2012 21.0005 27.4041C20.6729 26.6071 20.5871 25.7301 20.7542 24.884C20.9212 24.0379 21.3335 23.2607 21.9389 22.6507C22.5444 22.0407 23.3157 21.6253 24.1555 21.457C24.9952 21.2887 25.8656 21.3751 26.6566 21.7052C27.4477 22.0353 28.1238 22.5944 28.5994 23.3117C29.0751 24.029 29.329 24.8723 29.329 25.735C29.329 26.3078 29.217 26.8749 28.9995 27.4041C28.7819 27.9333 28.463 28.4142 28.0611 28.8192C27.6591 29.2242 27.1819 29.5455 26.6566 29.7647C26.1314 29.9839 25.5685 30.0968 25 30.0968Z" fill="white"/>
<path d="M31.9326 18.74H31.9258M31.9326 18.74L31.9307 18.7341M31.9326 18.74H31.9258M31.9326 18.74L31.9307 18.7341M31.9258 18.74L31.9307 18.7341M31.9258 18.74L31.915 18.7498M31.9307 18.7341L32.3652 18.3025M32.085 18.0457C32.168 18.1055 32.2464 18.1729 32.3164 18.2498L32.3652 18.3025M32.085 18.0457L31.9512 18.7136M32.085 18.0457C31.9788 17.9692 31.8643 17.9058 31.7422 17.8601V17.8591C31.7274 17.8537 31.7121 17.8497 31.6973 17.8445L31.5762 17.8855C31.4457 17.94 31.331 18.0218 31.2393 18.1238L31.1553 18.2322C31.0798 18.3461 31.0313 18.4739 31.0117 18.6062L31.002 18.74V18.7507C31.0579 18.7992 31.1151 18.8464 31.1699 18.8962M32.085 18.0457L31.9512 18.7136M32.3652 18.3025L31.9512 18.7136M32.3652 18.3025L32.3799 18.3191L32.4482 18.3835C32.6001 18.527 32.7207 18.7024 32.8027 18.8982C32.8154 18.9341 32.827 18.9704 32.8389 19.0066L32.8125 19.0896C32.7608 19.2152 32.6818 19.3287 32.5801 19.4216L32.4717 19.5076C32.3167 19.6119 32.1324 19.6686 31.9424 19.6687C31.935 19.6687 31.9273 19.6669 31.9199 19.6667C31.8768 19.6171 31.8342 19.567 31.79 19.5183L31.501 19.2126C31.3933 19.1044 31.2826 18.9988 31.1699 18.8962M31.9512 18.7136L31.915 18.7498M31.915 18.7498L31.1699 18.8962M31.915 18.7498L31.1699 18.8962" stroke="#F9FFEA" stroke-opacity="0.4" stroke-width="5"/>
<circle cx="24.5" cy="24.5" r="24" stroke="#F9FFEA" stroke-opacity="0.4"/>
</svg>
