<svg width="68" height="68" viewBox="0 0 68 68" fill="none" xmlns="http://www.w3.org/2000/svg">
<rect width="68" height="68" rx="8" fill="#CBEA7B"/>
<path d="M24.904 51.3214H42.683C46.1317 51.3214 47.8727 49.5636 47.8727 46.0814V20.6853C47.8727 17.1864 46.1484 15.4286 42.683 15.4286H38.4309C37.8616 15.4286 37.4766 15.8304 37.4766 16.4331C37.4766 16.5168 37.4766 16.6005 37.4766 16.6674C37.4766 18.8438 36.0033 20.1496 33.7935 20.1496C31.5837 20.1496 30.1105 18.8438 30.1105 16.6674C30.1105 16.6005 30.1105 16.5168 30.1105 16.4331C30.1105 15.8304 29.7255 15.4286 29.1563 15.4286H24.904C21.4386 15.4286 19.7143 17.1864 19.7143 20.6853V46.0814C19.7143 49.5636 21.4554 51.3214 24.904 51.3214ZM27.4487 27.9007C26.846 27.9007 26.4107 27.4487 26.4107 26.846C26.4107 26.2768 26.846 25.8248 27.4487 25.8248H40.1552C40.7412 25.8248 41.1763 26.2768 41.1763 26.846C41.1763 27.4487 40.7412 27.9007 40.1552 27.9007H27.4487ZM27.4487 33.8437C26.846 33.8437 26.4107 33.3917 26.4107 32.8226C26.4107 32.2366 26.846 31.7846 27.4487 31.7846H33.4587C34.0614 31.7846 34.4967 32.2366 34.4967 32.8226C34.4967 33.3917 34.0614 33.8437 33.4587 33.8437H27.4487Z" fill="#262626"/>
</svg>
