<svg width="49" height="49" viewBox="0 0 49 49" fill="none" xmlns="http://www.w3.org/2000/svg">
<path d="M38 23.2916V18.5429C35.7833 18.5429 34.0917 17.9493 33 16.7956C31.8796 15.4789 31.2519 13.8114 31.225 12.0804V11.7376L26.75 11.6289V30.9162C26.5965 31.7577 26.1893 32.5317 25.5835 33.1337C24.9776 33.7357 24.2022 34.1368 23.3619 34.2826C22.5217 34.4285 21.6571 34.3123 20.8848 33.9495C20.1125 33.5868 19.4697 32.9951 19.0433 32.2543C18.6168 31.5135 18.4272 30.6592 18.4999 29.8069C18.5727 28.9545 18.9045 28.145 19.4503 27.4878C19.9962 26.8306 20.7299 26.3572 21.5525 26.1315C22.375 25.9059 23.2467 25.9389 24.05 26.2261V21.6279C23.5817 21.5509 23.1079 21.5117 22.6333 21.5108C20.9258 21.5108 19.2567 22.0188 17.8369 22.9705C16.4172 23.9222 15.3106 25.275 14.6572 26.8576C14.0037 28.4402 13.8328 30.1817 14.1659 31.8619C14.499 33.542 15.3213 35.0853 16.5286 36.2966C17.736 37.5079 19.2744 38.3328 20.9491 38.667C22.6238 39.0012 24.3596 38.8297 25.9372 38.1741C27.5147 37.5186 28.863 36.4084 29.8117 34.9841C30.7603 33.5598 31.2667 31.8852 31.2667 30.1721C31.2657 29.8172 31.2435 29.4626 31.2 29.1104V21.4607C33.2348 22.7356 35.6023 23.373 38 23.2916Z" fill="white"/>
<path d="M30.7295 12.2256C30.7884 14.023 31.4532 15.7489 32.6191 17.1191L32.6279 17.1299L32.6367 17.1396C33.7652 18.3322 35.4328 18.947 37.5 19.0312V22.7969C35.3684 22.7799 33.2794 22.1733 31.4658 21.0371L30.7002 20.5576V29.1416L30.7041 29.1719C30.7348 29.4209 30.7545 29.6712 30.7627 29.9219L30.7666 30.1738C30.7663 31.7878 30.2891 33.3653 29.3955 34.707C28.5016 36.0491 27.2311 37.0954 25.7451 37.7129C24.3523 38.2916 22.8283 38.4697 21.3438 38.2305L21.0469 38.1768C19.5681 37.8816 18.2019 37.1802 17.0996 36.1533L16.8828 35.9434C15.8163 34.8733 15.0686 33.5283 14.7207 32.0596L14.6562 31.7646C14.3619 30.2803 14.485 28.745 15.0088 27.3301L15.1191 27.0488C15.6964 25.6506 16.6493 24.4428 17.8682 23.5586L18.1152 23.3857C19.4526 22.4893 21.0247 22.0108 22.6328 22.0107C22.9393 22.0114 23.2454 22.0292 23.5498 22.0635V25.5713C22.9628 25.4558 22.358 25.4545 21.7686 25.5684L21.4199 25.6494C20.6137 25.8706 19.884 26.3044 19.3047 26.9023L19.0654 27.168C18.5306 27.8119 18.1799 28.5866 18.0459 29.4092L18.002 29.7646C17.9307 30.5994 18.0839 31.4359 18.4434 32.1875L18.6104 32.5039C19.0281 33.2294 19.6308 33.828 20.3545 34.2383L20.6719 34.4023C21.5369 34.8086 22.5059 34.9388 23.4473 34.7754C24.271 34.6324 25.0392 34.2704 25.6729 33.7305L25.9355 33.4883C26.614 32.8142 27.0704 31.9477 27.2422 31.0059L27.25 30.9619V12.1406L30.7295 12.2256Z" stroke="#F9FFEA" stroke-opacity="0.4"/>
<circle cx="24.5" cy="24.5" r="24" stroke="#F9FFEA" stroke-opacity="0.4"/>
</svg>
