<svg width="69" height="69" viewBox="0 0 69 69" fill="none" xmlns="http://www.w3.org/2000/svg">
<path fill-rule="evenodd" clip-rule="evenodd" d="M30.4961 8.27368C51.3444 8.27368 43.219 42.878 30.4961 42.878C18.4795 42.878 9.64774 8.27368 30.4961 8.27368Z" fill="#D45985"/>
<path d="M30.2718 60.6405C46.9904 60.6405 60.5436 47.0657 60.5436 30.3202C60.5436 13.5748 46.9904 0 30.2718 0C13.5531 0 0 13.5748 0 30.3202C0 47.0657 13.5531 60.6405 30.2718 60.6405Z" fill="#97D851"/>
<path fill-rule="evenodd" clip-rule="evenodd" d="M16.3085 24.6332C16.3085 24.6332 17.6741 42.9038 14.3687 47.8345C11.0633 52.7653 30.5431 47.6481 30.5431 47.6481L30.549 13.4392L16.3085 24.6332Z" fill="#332E2E"/>
<path fill-rule="evenodd" clip-rule="evenodd" d="M44.7756 24.6332C44.7756 24.6332 43.41 42.9038 46.7163 47.8345C50.0227 52.7653 30.542 47.6481 30.542 47.6481L30.5361 13.4392L44.7756 24.6332Z" fill="#332E2E"/>
<path fill-rule="evenodd" clip-rule="evenodd" d="M51.7235 51.712C51.1279 50.2775 51.2395 48.8488 46.4676 46.6224C44.2212 46.0905 38.4245 45.3281 37.3292 43.2861C36.7737 42.2539 36.908 40.7987 36.908 38.0934L24.2408 37.9541C24.2408 40.679 24.3476 42.1322 23.7275 43.1527C22.5617 45.073 14.9741 46.4732 12.62 47.1012C8.61021 48.8861 9.06869 49.9713 8.53967 51.4245C11.3378 54.3157 14.683 56.6197 18.3799 58.2018C22.0768 59.7839 26.0513 60.6125 30.0714 60.6393C34.0915 60.6661 38.0767 59.8904 41.7942 58.3577C45.5118 56.8249 48.8872 54.5657 51.7235 51.712Z" fill="#FDDEA0"/>
<path fill-rule="evenodd" clip-rule="evenodd" d="M18.7215 23.729C15.8236 24.9948 18.2884 31 20.1126 30.9735C19.3557 28.6245 18.8885 26.1916 18.7215 23.729ZM42.6224 23.728C45.5223 24.9958 43.0564 31 41.2323 30.9735C41.9891 28.6242 42.4559 26.1909 42.6224 23.728Z" fill="#FDDEA0"/>
<path fill-rule="evenodd" clip-rule="evenodd" d="M30.4814 8.50342C39.0261 8.50342 42.6067 14.5871 42.8262 21.6196C43.127 31.2456 37.2666 42.6475 30.4824 42.6475C24.0557 42.6475 18.0347 30.855 18.4001 21.131C18.6548 14.3084 22.1366 8.50342 30.4814 8.50342Z" fill="#FFEABB"/>
<path fill-rule="evenodd" clip-rule="evenodd" d="M30.5491 13.44C29.9819 15.8058 27.3162 23.4163 16.3087 24.633C15.1624 5.67355 29.5685 6.13866 30.5491 6.19262C31.5308 6.13866 45.9368 5.67257 44.7896 24.633C33.783 23.4163 31.1164 15.8058 30.5491 13.44Z" fill="#494444"/>
<path fill-rule="evenodd" clip-rule="evenodd" d="M51.7235 51.7122C37.1558 56.2043 18.2502 53.4931 12.62 47.1013C8.61021 48.8862 9.06869 49.9714 8.53967 51.4247C11.3378 54.3159 14.683 56.6198 18.3799 58.2019C22.0768 59.784 26.0513 60.6127 30.0714 60.6394C34.0915 60.6662 38.0767 59.8906 41.7942 58.3578C45.5118 56.825 48.8872 54.5658 51.7235 51.7122Z" fill="#FD4022"/>
<path fill-rule="evenodd" clip-rule="evenodd" d="M41.9269 45.6455L42.9761 45.8938L42.9722 53.8594H41.9269V45.6455Z" fill="#D85B53"/>
<path fill-rule="evenodd" clip-rule="evenodd" d="M23.3494 43.5864C23.3514 43.5992 24.2096 47.9539 30.74 47.9539C37.246 47.9539 37.6428 43.7287 37.6438 43.7169L37.828 43.8965C37.828 43.9083 37.2754 48.5103 30.74 48.5103C24.0812 48.5103 23.1417 43.7709 23.1388 43.7562L23.3494 43.5864Z" fill="#494444"/>
<path d="M30.6871 50.3907C31.5057 50.3907 32.1693 49.552 32.1693 48.5175C32.1693 47.4829 31.5057 46.6443 30.6871 46.6443C29.8685 46.6443 29.2048 47.4829 29.2048 48.5175C29.2048 49.552 29.8685 50.3907 30.6871 50.3907Z" fill="#494444"/>
</svg>
