<svg width="25" height="28" viewBox="0 0 25 28" fill="none" xmlns="http://www.w3.org/2000/svg">
<path d="M23.6111 8.42343L15.2778 1.06823C14.5139 0.380313 13.5249 0 12.5 0C11.4751 0 10.4862 0.380313 9.72229 1.06823L1.38901 8.42343C0.947859 8.82065 0.595822 9.30795 0.35634 9.85286C0.116858 10.3978 -0.00457297 10.9878 0.000131658 11.5836V23.805C0.000131658 24.9176 0.439115 25.9846 1.22051 26.7713C2.00191 27.558 3.06171 28 4.16677 28H20.8333C21.9384 28 22.9982 27.558 23.7796 26.7713C24.561 25.9846 25 24.9176 25 23.805V11.5697C25.0027 10.9762 24.8803 10.3888 24.6409 9.84648C24.4015 9.30412 24.0505 8.81909 23.6111 8.42343ZM15.2778 25.2033H9.72229V18.2117C9.72229 17.8409 9.86861 17.4852 10.1291 17.2229C10.3895 16.9607 10.7428 16.8134 11.1112 16.8134H13.8889C14.2573 16.8134 14.6105 16.9607 14.871 17.2229C15.1315 17.4852 15.2778 17.8409 15.2778 18.2117V25.2033ZM22.2222 23.805C22.2222 24.1759 22.0759 24.5315 21.8154 24.7938C21.5549 25.056 21.2017 25.2033 20.8333 25.2033H18.0556V18.2117C18.0556 17.0991 17.6166 16.0321 16.8352 15.2454C16.0538 14.4587 14.994 14.0167 13.8889 14.0167H11.1112C10.0061 14.0167 8.9463 14.4587 8.16491 15.2454C7.38351 16.0321 6.94453 17.0991 6.94453 18.2117V25.2033H4.16677C3.79842 25.2033 3.44515 25.056 3.18468 24.7938C2.92422 24.5315 2.77789 24.1759 2.77789 23.805V11.5697C2.77814 11.3711 2.82038 11.1749 2.9018 10.9941C2.98322 10.8133 3.10196 10.652 3.25011 10.5209L11.5834 3.1797C11.8368 2.95552 12.1627 2.83189 12.5 2.83189C12.8374 2.83189 13.1632 2.95552 13.4167 3.1797L21.75 10.5209C21.8981 10.652 22.0169 10.8133 22.0983 10.9941C22.1797 11.1749 22.2219 11.3711 22.2222 11.5697V23.805Z" fill="black"/>
</svg>
