<svg width="20" height="21" viewBox="0 0 20 21" fill="none" xmlns="http://www.w3.org/2000/svg">
<path d="M19.7958 11.0325L16.9382 14.0325L15.9238 12.9675L17.5669 11.25H13.5734C13.005 11.25 12.4599 11.0129 12.058 10.591C11.6561 10.169 11.4303 9.59674 11.4303 9V2.25C11.4303 2.05109 11.355 1.86032 11.221 1.71967C11.087 1.57902 10.9053 1.5 10.7159 1.5H2.14317C1.95371 1.5 1.772 1.57902 1.63802 1.71967C1.50405 1.86032 1.42878 2.05109 1.42878 2.25V18.75C1.42878 18.9489 1.50405 19.1397 1.63802 19.2803C1.772 19.421 1.95371 19.5 2.14317 19.5H10.7159C10.9053 19.5 11.087 19.421 11.221 19.2803C11.355 19.1397 11.4303 18.9489 11.4303 18.75V13.5H12.859V18.75C12.859 19.3467 12.6332 19.919 12.2313 20.341C11.8294 20.7629 11.2843 21 10.7159 21H2.14317C1.57477 21 1.02964 20.7629 0.627721 20.341C0.225798 19.919 0 19.3467 0 18.75V2.25C0 1.65326 0.225798 1.08097 0.627721 0.65901C1.02964 0.237053 1.57477 0 2.14317 0H10.7159C11.2843 0 11.8294 0.237053 12.2313 0.65901C12.6332 1.08097 12.859 1.65326 12.859 2.25V9C12.859 9.19891 12.9343 9.38968 13.0683 9.53033C13.2023 9.67098 13.384 9.75 13.5734 9.75H17.574L15.9595 8.04L16.9739 6.9825L19.7958 9.9825C19.9267 10.1227 20 10.3112 20 10.5075C20 10.7038 19.9267 10.8923 19.7958 11.0325Z" fill="black" fill-opacity="0.8"/>
</svg>
