<svg width="26" height="27" viewBox="0 0 26 27" fill="none" xmlns="http://www.w3.org/2000/svg">
<path d="M13 22.0909C13.2571 22.0909 13.5085 22.0189 13.7222 21.8841C13.936 21.7492 14.1026 21.5575 14.201 21.3333C14.2994 21.109 14.3252 20.8623 14.275 20.6242C14.2249 20.3861 14.101 20.1675 13.9192 19.9958C13.7374 19.8242 13.5058 19.7073 13.2536 19.6599C13.0014 19.6126 12.7401 19.6369 12.5025 19.7298C12.265 19.8227 12.0619 19.98 11.9191 20.1818C11.7762 20.3836 11.7 20.6209 11.7 20.8636C11.7 21.1891 11.837 21.5013 12.0808 21.7315C12.3246 21.9616 12.6552 22.0909 13 22.0909ZM19.5 22.0909C19.7571 22.0909 20.0085 22.0189 20.2222 21.8841C20.436 21.7492 20.6026 21.5575 20.701 21.3333C20.7994 21.109 20.8252 20.8623 20.775 20.6242C20.7249 20.3861 20.601 20.1675 20.4192 19.9958C20.2374 19.8242 20.0058 19.7073 19.7536 19.6599C19.5014 19.6126 19.2401 19.6369 19.0025 19.7298C18.765 19.8227 18.5619 19.98 18.4191 20.1818C18.2762 20.3836 18.2 20.6209 18.2 20.8636C18.2 21.1891 18.337 21.5013 18.5808 21.7315C18.8246 21.9616 19.1552 22.0909 19.5 22.0909ZM19.5 17.1818C19.7571 17.1818 20.0085 17.1098 20.2222 16.975C20.436 16.8401 20.6026 16.6485 20.701 16.4242C20.7994 16.1999 20.8252 15.9532 20.775 15.7151C20.7249 15.477 20.601 15.2584 20.4192 15.0867C20.2374 14.9151 20.0058 14.7982 19.7536 14.7509C19.5014 14.7035 19.2401 14.7278 19.0025 14.8207C18.765 14.9136 18.5619 15.0709 18.4191 15.2727C18.2762 15.4745 18.2 15.7118 18.2 15.9545C18.2 16.28 18.337 16.5922 18.5808 16.8224C18.8246 17.0525 19.1552 17.1818 19.5 17.1818ZM13 17.1818C13.2571 17.1818 13.5085 17.1098 13.7222 16.975C13.936 16.8401 14.1026 16.6485 14.201 16.4242C14.2994 16.1999 14.3252 15.9532 14.275 15.7151C14.2249 15.477 14.101 15.2584 13.9192 15.0867C13.7374 14.9151 13.5058 14.7982 13.2536 14.7509C13.0014 14.7035 12.7401 14.7278 12.5025 14.8207C12.265 14.9136 12.0619 15.0709 11.9191 15.2727C11.7762 15.4745 11.7 15.7118 11.7 15.9545C11.7 16.28 11.837 16.5922 12.0808 16.8224C12.3246 17.0525 12.6552 17.1818 13 17.1818ZM22.1 2.45455H20.8V1.22727C20.8 0.90178 20.663 0.589618 20.4192 0.35946C20.1754 0.129302 19.8448 0 19.5 0C19.1552 0 18.8246 0.129302 18.5808 0.35946C18.337 0.589618 18.2 0.90178 18.2 1.22727V2.45455H7.8V1.22727C7.8 0.90178 7.66304 0.589618 7.41924 0.35946C7.17544 0.129302 6.84478 0 6.5 0C6.15522 0 5.82456 0.129302 5.58076 0.35946C5.33696 0.589618 5.2 0.90178 5.2 1.22727V2.45455H3.9C2.86566 2.45455 1.87368 2.84245 1.14228 3.53293C0.410892 4.2234 0 5.15988 0 6.13636V23.3182C0 24.2947 0.410892 25.2311 1.14228 25.9216C1.87368 26.6121 2.86566 27 3.9 27H22.1C23.1343 27 24.1263 26.6121 24.8577 25.9216C25.5891 25.2311 26 24.2947 26 23.3182V6.13636C26 5.15988 25.5891 4.2234 24.8577 3.53293C24.1263 2.84245 23.1343 2.45455 22.1 2.45455ZM23.4 23.3182C23.4 23.6437 23.263 23.9558 23.0192 24.186C22.7754 24.4162 22.4448 24.5455 22.1 24.5455H3.9C3.55522 24.5455 3.22456 24.4162 2.98076 24.186C2.73696 23.9558 2.6 23.6437 2.6 23.3182V12.2727H23.4V23.3182ZM23.4 9.81818H2.6V6.13636C2.6 5.81087 2.73696 5.49871 2.98076 5.26855C3.22456 5.03839 3.55522 4.90909 3.9 4.90909H5.2V6.13636C5.2 6.46186 5.33696 6.77402 5.58076 7.00418C5.82456 7.23433 6.15522 7.36364 6.5 7.36364C6.84478 7.36364 7.17544 7.23433 7.41924 7.00418C7.66304 6.77402 7.8 6.46186 7.8 6.13636V4.90909H18.2V6.13636C18.2 6.46186 18.337 6.77402 18.5808 7.00418C18.8246 7.23433 19.1552 7.36364 19.5 7.36364C19.8448 7.36364 20.1754 7.23433 20.4192 7.00418C20.663 6.77402 20.8 6.46186 20.8 6.13636V4.90909H22.1C22.4448 4.90909 22.7754 5.03839 23.0192 5.26855C23.263 5.49871 23.4 5.81087 23.4 6.13636V9.81818ZM6.5 17.1818C6.75712 17.1818 7.00846 17.1098 7.22224 16.975C7.43602 16.8401 7.60265 16.6485 7.70104 16.4242C7.79944 16.1999 7.82518 15.9532 7.77502 15.7151C7.72486 15.477 7.60105 15.2584 7.41924 15.0867C7.23743 14.9151 7.00579 14.7982 6.75362 14.7509C6.50144 14.7035 6.24006 14.7278 6.00251 14.8207C5.76497 14.9136 5.56194 15.0709 5.41909 15.2727C5.27624 15.4745 5.2 15.7118 5.2 15.9545C5.2 16.28 5.33696 16.5922 5.58076 16.8224C5.82456 17.0525 6.15522 17.1818 6.5 17.1818ZM6.5 22.0909C6.75712 22.0909 7.00846 22.0189 7.22224 21.8841C7.43602 21.7492 7.60265 21.5575 7.70104 21.3333C7.79944 21.109 7.82518 20.8623 7.77502 20.6242C7.72486 20.3861 7.60105 20.1675 7.41924 19.9958C7.23743 19.8242 7.00579 19.7073 6.75362 19.6599C6.50144 19.6126 6.24006 19.6369 6.00251 19.7298C5.76497 19.8227 5.56194 19.98 5.41909 20.1818C5.27624 20.3836 5.2 20.6209 5.2 20.8636C5.2 21.1891 5.33696 21.5013 5.58076 21.7315C5.82456 21.9616 6.15522 22.0909 6.5 22.0909Z" fill="black" fill-opacity="0.6"/>
</svg>
