<svg width="24" height="30" viewBox="0 0 24 30" fill="none" xmlns="http://www.w3.org/2000/svg">
<path d="M1.41176 15C1.03734 15 0.678254 15.158 0.413497 15.4393C0.148739 15.7206 0 16.1022 0 16.5V28.5C0 28.8978 0.148739 29.2794 0.413497 29.5607C0.678254 29.842 1.03734 30 1.41176 30C1.78619 30 2.14528 29.842 2.41003 29.5607C2.67479 29.2794 2.82353 28.8978 2.82353 28.5V16.5C2.82353 16.1022 2.67479 15.7206 2.41003 15.4393C2.14528 15.158 1.78619 15 1.41176 15ZM8.47059 0C8.09616 0 7.73708 0.158035 7.47232 0.43934C7.20756 0.720644 7.05882 1.10218 7.05882 1.5V28.5C7.05882 28.8978 7.20756 29.2794 7.47232 29.5607C7.73708 29.842 8.09616 30 8.47059 30C8.84501 30 9.2041 29.842 9.46886 29.5607C9.73361 29.2794 9.88235 28.8978 9.88235 28.5V1.5C9.88235 1.10218 9.73361 0.720644 9.46886 0.43934C9.2041 0.158035 8.84501 0 8.47059 0ZM22.5882 21C22.2138 21 21.8547 21.158 21.59 21.4393C21.3252 21.7206 21.1765 22.1022 21.1765 22.5V28.5C21.1765 28.8978 21.3252 29.2794 21.59 29.5607C21.8547 29.842 22.2138 30 22.5882 30C22.9627 30 23.3217 29.842 23.5865 29.5607C23.8513 29.2794 24 28.8978 24 28.5V22.5C24 22.1022 23.8513 21.7206 23.5865 21.4393C23.3217 21.158 22.9627 21 22.5882 21ZM15.5294 9C15.155 9 14.7959 9.15804 14.5311 9.43934C14.2664 9.72064 14.1176 10.1022 14.1176 10.5V28.5C14.1176 28.8978 14.2664 29.2794 14.5311 29.5607C14.7959 29.842 15.155 30 15.5294 30C15.9038 30 16.2629 29.842 16.5277 29.5607C16.7924 29.2794 16.9412 28.8978 16.9412 28.5V10.5C16.9412 10.1022 16.7924 9.72064 16.5277 9.43934C16.2629 9.15804 15.9038 9 15.5294 9Z" fill="black" fill-opacity="0.6"/>
</svg>
