<svg width="25" height="28" viewBox="0 0 25 28" fill="none" xmlns="http://www.w3.org/2000/svg">
<path d="M20.8333 14.21V1.4C20.8333 1.0287 20.687 0.672601 20.4265 0.41005C20.1661 0.1475 19.8128 0 19.4444 0C19.0761 0 18.7228 0.1475 18.4623 0.41005C18.2019 0.672601 18.0556 1.0287 18.0556 1.4V14.21C16.8527 14.5621 15.7959 15.2986 15.0444 16.3086C14.2929 17.3186 13.8874 18.5475 13.8889 19.81C13.8889 22.68 16 27.93 19.4444 27.93C22.8889 27.93 25 22.68 25 19.81C25.0015 18.5475 24.596 17.3186 23.8444 16.3086C23.0929 15.2986 22.0362 14.5621 20.8333 14.21ZM19.4444 25.2C18.3333 25.2 16.6667 22.022 16.6667 19.88C16.6327 19.101 16.9056 18.34 17.4259 17.7631C17.9463 17.1861 18.6719 16.8399 19.4444 16.8C20.217 16.8399 20.9426 17.1861 21.4629 17.7631C21.9833 18.34 22.2562 19.101 22.2222 19.88C22.2222 22.022 20.5556 25.2 19.4444 25.2ZM9.72222 0C9.35386 0 9.0006 0.1475 8.74013 0.41005C8.47966 0.672601 8.33333 1.0287 8.33333 1.4V9.044L6.94444 9.982V1.4C6.94444 1.0287 6.79811 0.672601 6.53765 0.41005C6.27718 0.1475 5.92391 0 5.55555 0C5.1872 0 4.83393 0.1475 4.57346 0.41005C4.31299 0.672601 4.16667 1.0287 4.16667 1.4V9.982L2.77778 9.044V1.4C2.77778 1.0287 2.63145 0.672601 2.37098 0.41005C2.11051 0.1475 1.75724 0 1.38889 0C1.02053 0 0.667263 0.1475 0.406796 0.41005C0.146329 0.672601 0 1.0287 0 1.4V9.8C0.0011835 10.0306 0.0588544 10.2573 0.167888 10.46C0.276922 10.6627 0.433943 10.8352 0.625 10.962L4.16667 13.356V26.6C4.16667 26.9713 4.31299 27.3274 4.57346 27.59C4.83393 27.8525 5.1872 28 5.55555 28C5.92391 28 6.27718 27.8525 6.53765 27.59C6.79811 27.3274 6.94444 26.9713 6.94444 26.6V13.356L10.4861 10.962C10.6772 10.8352 10.8342 10.6627 10.9432 10.46C11.0523 10.2573 11.1099 10.0306 11.1111 9.8V1.4C11.1111 1.0287 10.9648 0.672601 10.7043 0.41005C10.4438 0.1475 10.0906 0 9.72222 0Z" fill="black" fill-opacity="0.6"/>
</svg>
