<svg width="171" height="74" viewBox="0 0 171 74" fill="none" xmlns="http://www.w3.org/2000/svg">
<path d="M85.999 57.546C84.389 57.546 82.842 57.294 81.358 56.79C79.874 56.286 78.579 55.565 77.473 54.627C76.367 53.675 75.576 52.548 75.1 51.246L79.195 49.713C79.433 50.385 79.888 50.987 80.56 51.519C81.246 52.037 82.058 52.443 82.996 52.737C83.948 53.031 84.949 53.178 85.999 53.178C87.119 53.178 88.169 52.996 89.149 52.632C90.143 52.268 90.941 51.764 91.543 51.12C92.159 50.476 92.467 49.72 92.467 48.852C92.467 47.956 92.145 47.221 91.501 46.647C90.871 46.073 90.059 45.618 89.065 45.282C88.085 44.946 87.063 44.694 85.999 44.526C83.941 44.19 82.093 43.7 80.455 43.056C78.831 42.412 77.543 41.509 76.591 40.347C75.653 39.185 75.184 37.673 75.184 35.811C75.184 34.061 75.681 32.535 76.675 31.233C77.683 29.931 79.006 28.923 80.644 28.209C82.296 27.481 84.081 27.117 85.999 27.117C87.581 27.117 89.107 27.369 90.577 27.873C92.061 28.363 93.363 29.084 94.483 30.036C95.617 30.974 96.429 32.115 96.919 33.459L92.782 34.95C92.544 34.264 92.089 33.669 91.417 33.165C90.745 32.647 89.933 32.241 88.981 31.947C88.043 31.653 87.049 31.506 85.999 31.506C84.879 31.492 83.829 31.674 82.849 32.052C81.883 32.416 81.092 32.92 80.476 33.564C79.86 34.208 79.552 34.957 79.552 35.811C79.552 36.861 79.839 37.659 80.413 38.205C80.987 38.751 81.757 39.157 82.723 39.423C83.703 39.675 84.795 39.906 85.999 40.116C87.931 40.424 89.716 40.935 91.354 41.649C93.006 42.363 94.329 43.315 95.323 44.505C96.331 45.681 96.835 47.13 96.835 48.852C96.835 50.588 96.331 52.114 95.323 53.43C94.329 54.732 93.006 55.747 91.354 56.475C89.716 57.189 87.931 57.546 85.999 57.546ZM110.231 57.546C108.299 57.546 106.535 57.049 104.939 56.055C103.357 55.061 102.09 53.731 101.138 52.065C100.2 50.385 99.7307 48.53 99.7307 46.5C99.7307 44.96 100.004 43.525 100.55 42.195C101.096 40.851 101.845 39.675 102.797 38.667C103.763 37.645 104.883 36.847 106.157 36.273C107.431 35.699 108.789 35.412 110.231 35.412C111.841 35.412 113.318 35.748 114.662 36.42C116.006 37.078 117.154 37.995 118.106 39.171C119.058 40.333 119.758 41.677 120.206 43.203C120.654 44.715 120.787 46.325 120.605 48.033H104.414C104.596 48.999 104.946 49.874 105.464 50.658C105.996 51.428 106.668 52.037 107.48 52.485C108.306 52.933 109.223 53.164 110.231 53.178C111.295 53.178 112.261 52.912 113.129 52.38C114.011 51.848 114.732 51.113 115.292 50.175L119.723 51.204C118.883 53.066 117.616 54.592 115.922 55.782C114.228 56.958 112.331 57.546 110.231 57.546ZM104.267 44.694H116.195C116.055 43.686 115.698 42.776 115.124 41.964C114.564 41.138 113.857 40.487 113.003 40.011C112.163 39.521 111.239 39.276 110.231 39.276C109.237 39.276 108.313 39.514 107.459 39.99C106.619 40.466 105.919 41.117 105.359 41.943C104.813 42.755 104.449 43.672 104.267 44.694ZM133.281 57.546C131.349 57.546 129.585 57.049 127.989 56.055C126.407 55.061 125.14 53.731 124.188 52.065C123.25 50.385 122.781 48.53 122.781 46.5C122.781 44.96 123.054 43.525 123.6 42.195C124.146 40.851 124.895 39.675 125.847 38.667C126.813 37.645 127.933 36.847 129.207 36.273C130.481 35.699 131.839 35.412 133.281 35.412C134.891 35.412 136.368 35.748 137.712 36.42C139.056 37.078 140.204 37.995 141.156 39.171C142.108 40.333 142.808 41.677 143.256 43.203C143.704 44.715 143.837 46.325 143.655 48.033H127.464C127.646 48.999 127.996 49.874 128.514 50.658C129.046 51.428 129.718 52.037 130.53 52.485C131.356 52.933 132.273 53.164 133.281 53.178C134.345 53.178 135.311 52.912 136.179 52.38C137.061 51.848 137.782 51.113 138.342 50.175L142.773 51.204C141.933 53.066 140.666 54.592 138.972 55.782C137.278 56.958 135.381 57.546 133.281 57.546ZM127.317 44.694H139.245C139.105 43.686 138.748 42.776 138.174 41.964C137.614 41.138 136.907 40.487 136.053 40.011C135.213 39.521 134.289 39.276 133.281 39.276C132.287 39.276 131.363 39.514 130.509 39.99C129.669 40.466 128.969 41.117 128.409 41.943C127.863 42.755 127.499 43.672 127.317 44.694ZM163.451 25.5H167.819V57H163.451V53.913C162.765 55.005 161.869 55.887 160.763 56.559C159.657 57.217 158.362 57.546 156.878 57.546C155.352 57.546 153.924 57.259 152.594 56.685C151.264 56.111 150.088 55.32 149.066 54.312C148.058 53.29 147.267 52.114 146.693 50.784C146.119 49.454 145.832 48.026 145.832 46.5C145.832 44.974 146.119 43.546 146.693 42.216C147.267 40.872 148.058 39.696 149.066 38.688C150.088 37.666 151.264 36.868 152.594 36.294C153.924 35.72 155.352 35.433 156.878 35.433C158.362 35.433 159.657 35.769 160.763 36.441C161.869 37.099 162.765 37.967 163.451 39.045V25.5ZM156.92 53.325C158.152 53.325 159.23 53.024 160.154 52.422C161.078 51.806 161.792 50.98 162.296 49.944C162.814 48.908 163.073 47.76 163.073 46.5C163.073 45.226 162.814 44.071 162.296 43.035C161.778 41.999 161.057 41.18 160.133 40.578C159.223 39.962 158.152 39.654 156.92 39.654C155.702 39.654 154.589 39.962 153.581 40.578C152.587 41.194 151.789 42.02 151.187 43.056C150.599 44.092 150.305 45.24 150.305 46.5C150.305 47.774 150.606 48.929 151.208 49.965C151.824 50.987 152.629 51.806 153.623 52.422C154.631 53.024 155.73 53.325 156.92 53.325Z" fill="black"/>
<path d="M48.2694 39.9872C48.2728 40.0453 48.2713 40.2918 48.2701 40.4729C48.2696 40.5602 48.2691 40.6322 48.2694 40.6607C48.2694 41.3526 47.7954 42.1929 47.5 42.9999L37.1986 42.9201L32.5347 42.9201C32.6571 42.8832 32.7986 42.8392 32.9546 42.7883C34.3811 42.3225 37.0123 41.285 37.2276 39.9872H48.2694Z" fill="black"/>
<path d="M40.3823 59.4949C39.578 60.038 38.9294 60.5159 38.9294 60.5811L33.9222 64.122L28.9409 60.6028L28.4868 60.2987L40.3823 59.4949Z" fill="black"/>
<path d="M32.9103 32.8838L34 33.6875L31.1263 39.9872H30.707C30.6715 39.7418 30.5932 39.4281 30.462 39.0855C30.3416 38.7579 30.1912 38.4557 30.0096 38.1772C30.0023 38.1661 29.995 38.155 29.9876 38.1439C29.4685 37.3314 28.639 36.5464 27.3842 36.2292L30.1084 31.4066C31.0423 31.7759 32.2877 32.4493 32.9103 32.8838Z" fill="black"/>
<path d="M37.8657 31.4066C39.3186 30.82 39.9412 30.7114 42.0687 30.6462L42.1465 35.8599C39.4483 36.0554 37.6686 37.3587 37.2276 39.9872H31.3796H31.1263L34 33.6875L35.0637 32.8838C35.6604 32.4276 36.9058 31.7759 37.8657 31.4066Z" fill="black"/>
<path fill-rule="evenodd" clip-rule="evenodd" d="M6.9401 1.45004C7.58871 0.841782 8.23732 0.5811 9.87181 0.27697C11.8695 -0.0923309 16.2022 -0.0923309 18.5113 0.27697C21.2873 0.733162 24.0633 1.689 26.554 3.10102C29.1744 4.55649 31.198 6.31607 32.9363 8.68392L34.2276 14.2874L34.934 9.27045C35.7531 6.87185 38.0916 4.82668 39.2635 3.80189L39.3445 3.73099C40.5639 2.66654 41.7573 2.38415 43.1583 2.86206C44.7669 3.42686 45.4414 5.27335 44.5334 6.62019C44.2999 6.96777 43.6253 7.7281 43.0805 8.33635C41.1606 10.3566 39.2667 13.6803 38.3846 16.5261C38.0992 17.4819 37.9176 18.3074 37.9695 18.3508C38.0214 18.3943 38.9813 18.0901 40.1229 17.6774C43.7551 16.3523 45.8565 16.0047 49.9557 15.9612C53.3804 15.9395 53.7177 15.983 55.7932 16.6129C58.5952 17.4384 60.4891 18.4812 62.6166 20.3928C65.3407 22.8041 67.1309 25.9757 67.7276 29.5384C68.0908 31.6238 68.0908 37.4891 67.7276 39.7701C67.2606 42.7896 66.4304 46.0047 65.3407 48.9591C61.8382 58.5173 55.897 65.4471 49.359 67.5543C47.3094 68.206 43.9367 68.358 41.913 67.8584C39.8894 67.3805 37.3468 66.2726 35.4529 65.0778L33.9222 64.122L32.3396 65.1212C29.0187 67.2067 26.0092 68.1842 22.818 68.1842C20.9663 68.1842 19.1839 67.8123 17.4554 67.0602C17.3466 67.0128 17.238 66.964 17.1296 66.9136C14.8828 65.8697 12.7259 64.1777 10.6242 61.8193C5.66883 56.2581 1.4918 46.8302 0.272415 38.4232C-0.090805 35.8599 -0.090805 30.4507 0.272415 28.8867C1.28424 24.4985 3.85273 20.8707 7.61465 18.5681C8.57459 18.0032 9.35292 17.4819 9.35292 17.4384C9.35292 17.3733 9.04159 16.9388 8.67837 16.4392C7.61465 15.0271 6.57688 12.8331 6.13583 11.0083C5.3575 7.81498 5.79855 2.49276 6.9401 1.45004ZM28.9409 60.6028L33.9222 64.122L38.9294 60.5811C38.9294 60.7983 41.9649 62.3189 43.0546 62.6448C45.7528 63.4268 48.0618 62.7534 50.9935 60.2769C54.963 56.9533 58.0763 51.7179 60.1 44.9837C61.2415 41.2473 61.7604 37.815 61.7604 34.2306C61.7604 29.8642 60.8783 27.1271 58.7249 24.7375C57.4277 23.282 55.871 22.2828 53.8733 21.6311C52.0832 21.0445 48.425 21.0662 45.5971 21.6745C42.0946 22.4348 40.3563 23.282 37.7879 25.4544C34.3373 28.3653 33.5849 28.387 30.29 25.563C27.8771 23.4993 25.594 22.3696 22.5326 21.7179C20.1717 21.2183 17.1103 21.0228 15.6314 21.2618C11.5063 21.9786 8.49675 24.4334 6.86227 28.4305C6.44716 29.4515 6.36932 30.2552 6.36932 33.7527C6.39527 37.5543 6.44716 38.1408 7.25143 41.2473C9.84586 51.5224 15.2942 60.2118 20.5349 62.4493C21.6505 62.9055 22.1694 62.9923 23.2591 62.9272C24.6601 62.8186 26.8653 62.0148 28.1885 61.1241L28.9409 60.6028ZM29.7451 16.9171C29.1744 11.5731 24.2449 6.88088 17.7848 5.51231C16.2282 5.18646 12.4403 5.05611 12.129 5.33852C11.7917 5.5992 11.9473 8.79253 12.3365 10.0742C12.8295 11.6817 13.9451 13.6803 15.0347 14.8968C15.839 15.8309 15.839 15.8309 17.4994 15.8309C21.1316 15.8309 26.3983 16.8519 28.7592 18.025C29.2262 18.2422 29.6932 18.4377 29.7711 18.4377C29.8489 18.4377 29.8489 17.7643 29.7451 16.9171Z" fill="#335A13"/>
<path d="M49.7741 51.1314C48.0099 53.2386 42.7173 57.9308 40.3823 59.4949L33.8214 56.8194C34.4169 56.8449 35.0997 56.4395 36.5 55.3892C36.7721 55.1851 37.0103 54.8996 37.3468 54.6506C41.5476 51.171 46.6798 46.5828 47.5 42.9999C47.7954 42.1929 48.2694 41.3526 48.2694 40.6607C48.2691 40.6322 48.2696 40.5602 48.2701 40.4729C48.2713 40.2918 48.2728 40.0453 48.2694 39.9872C48.077 36.7524 45.5465 35.6279 42.1465 35.8599L42.0687 30.6462C47.7764 30.4507 51.9535 32.7534 53.9771 37.2284C54.7035 38.8577 54.7814 41.7469 54.1328 43.8541C53.5101 45.8526 51.72 48.8504 49.7741 51.1314Z" fill="black"/>
<path d="M37.2276 39.9872C37.0123 41.285 34.3811 42.3225 32.9546 42.7883C31.9648 42.2976 31.3358 41.25 31.1263 39.9872H31.3796H37.2276Z" fill="black"/>
<path d="M32.5347 42.9201C31.2894 42.3987 30.9645 41.5948 30.757 40.2914C30.7424 40.1881 30.7257 40.0867 30.707 39.9872H31.1263C31.3358 41.25 31.9648 42.2976 32.9546 42.7883C32.7986 42.8392 32.6571 42.8832 32.5347 42.9201Z" fill="black"/>
<path d="M30.757 40.2914C30.9645 41.5948 31.2894 42.3987 32.5347 42.9201L22.8378 42.9171L20.0146 42.9168C19.9462 42.7062 19.8861 42.4972 19.8344 42.29C19.6182 41.445 19.5527 40.6787 19.6397 39.9872H30.707C30.7257 40.0867 30.7424 40.1881 30.757 40.2914Z" fill="black"/>
<path fill-rule="evenodd" clip-rule="evenodd" d="M25 30.5C28.1133 30.5 28.4739 30.7331 30.1084 31.4066L27.3842 36.2292C25.8275 35.6209 24.0114 35.7078 22.5326 36.4247C20.7929 37.2656 19.8343 38.4388 19.6397 39.9872L20 40.5C19.7612 41.9397 21.2422 42.1261 20 42.5L19.9839 42.9171L20.0146 42.9168C20.5767 44.6472 21.7008 46.488 23.3392 48.3874C24.1474 49.3242 25.0806 50.2752 26.1333 51.2342C27.6423 52.6089 29.3967 54.0001 31.3796 55.3892C31.6369 55.569 31.8655 55.7333 32.0712 55.8811C32.8915 56.4706 33.3489 56.7993 33.8214 56.8194L40.3823 59.4949L28.4868 60.2987L28.0328 59.9945C17.3957 52.891 11.7398 44.2668 13.6337 38.0974C14.5677 35.1213 16.8768 32.7969 20.1976 31.4283C21.884 30.7331 21.8607 30.5 25 30.5ZM14.5174 43.2554C14.4783 43.258 14.4607 43.2581 14.4699 43.2554H14.5174Z" fill="black"/>
<path d="M22.5326 21.7179C25.594 22.3696 27.8771 23.4993 30.29 25.563C33.5849 28.387 34.3373 28.3653 37.7879 25.4544C40.3563 23.282 42.0946 22.4348 45.5971 21.6745C48.425 21.0662 52.0832 21.0445 53.8733 21.6311C55.871 22.2828 57.4277 23.282 58.7249 24.7375C60.8783 27.1271 61.7604 29.8642 61.7604 34.2306C61.7604 37.815 61.2415 41.2473 60.1 44.9837C58.0763 51.7179 54.963 56.9533 50.9935 60.2769C48.0618 62.7534 45.7528 63.4268 43.0546 62.6448C41.9649 62.3189 38.9294 60.7983 38.9294 60.5811C38.9294 60.5159 39.578 60.038 40.3823 59.4949C42.7173 57.9308 48.0099 53.2386 49.7741 51.1314C51.72 48.8504 53.5101 45.8526 54.1328 43.8541C54.7814 41.7469 54.7035 38.8577 53.9771 37.2284C51.9535 32.7534 47.7764 30.4507 42.0687 30.6462C39.9412 30.7114 39.3186 30.82 37.8657 31.4066C36.9058 31.7759 35.6604 32.4276 35.0637 32.8838L34 33.6875L32.9103 32.8838C32.2877 32.4493 31.0423 31.7759 30.1084 31.4066C28.4739 30.7331 28.1133 30.5 25 30.5C21.8607 30.5 21.884 30.7331 20.1976 31.4283C16.8768 32.7969 14.5677 35.1213 13.6337 38.0974C11.7398 44.2668 17.3957 52.891 28.0328 59.9945L28.4868 60.2987L28.9409 60.6028L28.1885 61.1241C26.8653 62.0148 24.6601 62.8186 23.2591 62.9272C22.1694 62.9923 21.6505 62.9055 20.5349 62.4493C15.2942 60.2118 9.84586 51.5224 7.25143 41.2473C6.44716 38.1408 6.39527 37.5543 6.36932 33.7527C6.36932 30.2552 6.44716 29.4515 6.86227 28.4305C8.49675 24.4334 11.5063 21.9786 15.6314 21.2618C17.1103 21.0228 20.1717 21.2183 22.5326 21.7179Z" fill="#90A955"/>
<path d="M37 42.5C37.1667 44.1667 39.5 49 45 48.5L41 52C33.5 50.5 32.6667 44.1667 32.5 42.5H37Z" fill="black" stroke="black"/>
<path d="M31 43C30.8333 44.6667 28.5 49.5 23 49L27 52.5C34.5 51 35.3333 44.6667 35.5 43H31Z" fill="black" stroke="black"/>
</svg>
